<svg xmlns="http://www.w3.org/2000/svg" version="1.0" width="768" height="464" id="svg2">
    <defs id="defsHiragana">
        <marker refX="0" refY="0" orient="auto" style="overflow:visible" id="Arrow2Mend">
            <path d="M8.719 4.034-2.207.016 8.719-4.002c-1.746 2.372-1.736 5.618 0 8.036z" transform="scale(-.6)" class="arrow" id="path3344" style="stroke:#00f"/>
        </marker>
        <marker refX="0" refY="0" orient="auto" style="overflow:visible" id="Arrow2Send">
            <path d="M8.719 4.034-2.207.016 8.719-4.002c-1.746 2.372-1.736 5.618 0 8.036z" transform="matrix(-.3 0 0 -.3 .69 0)" class="arrow" id="path3338" style="stroke:#00f"/>
        </marker>
        <marker refX="0" refY="0" orient="auto" style="overflow:visible" id="Arrow1Send">
            <path d="m0 0 5-5-17.5 5L5 5 0 0z" transform="matrix(-.2 0 0 -.2 -1.2 0)" class="arrow" id="path3356" style="stroke:#00f"/>
        </marker>
        <marker refX="0" refY="0" orient="auto" style="overflow:visible" id="Arrow1Mend">
            <path d="m0 0 5-5-17.5 5L5 5 0 0z" transform="matrix(-.4 0 0 -.4 -4 0)" class="arrow" id="path3362" style="stroke:#00f"/>
        </marker>
        <marker refX="0" refY="0" orient="auto" style="overflow:visible" id="Arrow1Lend">
            <path d="m0 0 5-5-17.5 5L5 5 0 0z" transform="matrix(-.8 0 0 -.8 -10 0)" class="arrow" id="path3368" style="stroke:#00f"/>
        </marker>
    </defs>
    <style>
        path.arrow,path.stroke{fill-rule:evenodd;stroke:#00f}path.stroke{fill:none;fill-opacity:.75;stroke-width:1px;stroke-linecap:butt;stroke-linejoin:miter;stroke-opacity:1;marker-end:url(#Arrow1Mend)}path.arrow{font-size:12px;fill:#00f;stroke-width:1pt;stroke-linejoin:round;marker-start:none}text.number{font-size:8px;fill:#00f}text.label{font-size:22px}text.cell{font-style:italic;text-transform:lowercase;fill:gray}path.rule{fill:none;fill-opacity:.75;fill-rule:evenodd;stroke:#000;stroke-width:1px;stroke-linecap:butt;stroke-linejoin:miter;stroke-opacity:.1}path.rule[id*=V]{stroke-opacity:0}defs marker{overflow:visible}
    </style>
    <g id="gTable">
        <path d="M16.5 47.5v400" class="rule" id="ruleV01"/>
        <path d="M80.5 47v400" class="rule" id="ruleV02"/>
        <path d="M144.5 47v400" class="rule" id="ruleV03"/>
        <path d="M208.5 47v400" class="rule" id="ruleV04"/>
        <path d="M272.5 47v400" class="rule" id="ruleV05"/>
        <path d="M336.5 47v400" class="rule" id="ruleV06"/>
        <path d="M400.5 47v400" class="rule" id="ruleV07"/>
        <path d="M464.5 47v400" class="rule" id="ruleV08"/>
        <path d="M528.5 47v400" class="rule" id="ruleV09"/>
        <path d="M592.5 47v400" class="rule" id="ruleV10"/>
        <path d="M656.5 47v400" class="rule" id="ruleV11"/>
        <path d="M720.5 47v400" class="rule" id="ruleV12" style="stroke-opacity:.8"/>
        <path d="M16.5 47.5h704" class="rule" id="ruleH1" style="stroke-opacity:.8"/>
        <path d="M16.5 127.5h704" class="rule" id="ruleH2"/>
        <path d="M16.5 207.5h704" class="rule" id="ruleH3"/>
        <path d="M16.5 287.5h704" class="rule" id="ruleH4"/>
        <path d="M16.5 367.5h704" class="rule" id="ruleH5"/>
        <path d="M16.5 447.5h704" class="rule" id="ruleH6"/>
    </g>
    <text x="38.317" y="122.671" id="cellN" class="label cell">N</text>
    <g id="gN">
        <path d="M45.895 57.057c1.844.875 3.484 1.469 4.922 1.781.344.281.297.563-.14.844l-.938.61c-3.47 6.874-6.344 12.577-8.625 17.109 2.437-1.657 4.25-2.579 5.437-2.766 1.188-.188 2.219-.156 3.094.094.906.25 1.64.797 2.203 1.64.563.813.969 2.516 1.219 5.11.25 2.562.562 4.718.937 6.468s1.297 2.657 2.766 2.72c1.469.03 2.828-.75 4.078-2.345 1.281-1.625 2.36-3.78 3.234-6.468.875-2.719 1.297-4.313 1.266-4.782h.516c1.406 1.22 2.828 2.235 4.265 3.047-.375.782-1.031 2.235-1.968 4.36-.938 2.125-2.313 4.39-4.125 6.797-1.782 2.375-3.954 3.625-6.516 3.75-2.531.125-4.344-.313-5.438-1.313-1.062-1.031-1.78-2.578-2.156-4.64a81.325 81.325 0 0 1-.797-6.329c-.156-2.187-.53-3.578-1.125-4.172-.593-.593-1.406-.671-2.437-.234-1.031.406-2.297 1.14-3.797 2.203-1.5 1.031-2.797 2.078-3.89 3.14a639.76 639.76 0 0 1-3.282 6.188l-3.187 5.953c-1.375-1.28-2.766-2.171-4.172-2.671v-.563c5.031-7.594 9.312-15.219 12.843-22.875 3.563-7.687 5.22-11.719 4.97-12.094-.095-.562.187-.75.843-.562" id="flowRoot1947"/>
        <path d="M39.223 60.505 26.079 82.203" class="stroke" id="path2309"/>
        <path d="M21.631 90.272s-.295 6.955 4.428 8.22c5.89 1.578 11.583-2.47 17.051-5.977" class="stroke" id="path3382"/>
        <path d="M64.69 97.577c4.868-1.697 7.93-10.733 8.999-13.425" class="stroke" id="path4269"/>
        <text x="25.525" y="65.344" class="number">1</text>
    </g>
    <text x="94.317" y="122.671" id="cellWA" class="label cell">WA</text>
    <g id="gWA">
        <path d="M115.656 92.945c2.625-.375 4.72-.797 6.282-1.265a11.813 11.813 0 0 0 4.218-2.391c1.282-1.125 2.157-2.563 2.625-4.313.5-1.75.625-3.421.375-5.015-.218-1.594-.812-3-1.78-4.219-.938-1.25-2.126-2.031-3.563-2.344-1.407-.312-2.97-.375-4.688-.187-1.687.187-3.64.812-5.86 1.875-2.218 1.062-4.405 2.515-6.562 4.36.032 2.28.063 4.937.094 7.968.063 3.031.344 6.61.844 10.734l-.14.422c-1.407.094-3.016.36-4.829.797-.094-4.219-.156-7.64-.187-10.266v-5.39c-2.063 2.375-4.47 5.5-7.22 9.375l-.421.047c-1.031-1.407-2.188-2.485-3.469-3.235 4.594-5.062 8.297-8.922 11.11-11.578a233459.707 233459.707 0 0 1 0-6.562 61.324 61.324 0 0 0-7.782 2.484c-.156-1.312-.593-2.719-1.312-4.219l.094-.422a92.542 92.542 0 0 0 9.046-1.5c.032-1.53.094-3.265.188-5.203.094-1.968.016-3.14-.234-3.515-.157-.563 0-.813.468-.75l4.64.468c.376.157.376.407 0 .75l-.515.75a203.96 203.96 0 0 0-.281 5.954l.094-.141c.156-.125.312-.125.469 0a24.84 24.84 0 0 1 3.375 1.875c.468.406.375.797-.282 1.172l-1.687.937a192.302 192.302 0 0 1-2.11 3.188l.047 1.172a27.32 27.32 0 0 1 5.953-3.375c2.157-.907 4.282-1.469 6.375-1.688a18.233 18.233 0 0 1 6.235.422c2.062.469 3.875 1.625 5.437 3.469 1.594 1.844 2.516 3.781 2.766 5.812.25 2 .125 4.078-.375 6.235-.469 2.125-1.453 3.937-2.953 5.437a18.51 18.51 0 0 1-5.063 3.61c-1.875.875-4.437 1.687-7.687 2.437-.5-1.5-1.078-2.734-1.735-3.703v-.469" id="path2027"/>
        <path d="m110.496 52.415.22 9.666" class="stroke" id="path6069"/>
        <path d="m87.63 67.452 12.54-2.36" class="stroke" id="path6956"/>
        <path d="M90.755 86.48s-5.66 6.824-3.73 9.197c1.93 2.374 8.07.13 12.703-1.106" class="stroke" id="path7845"/>
        <path d="M119.717 65.681c12.945-3.245 15.951 7.377 17.924 12.393" class="stroke" id="path8732"/>
        <text x="112.882" y="58.074" class="number">1</text>
        <text x="86.377" y="64.123" class="number">2</text>
    </g>
    <text x="160.317" y="122.671" id="cellRA" class="label cell">RA</text>
    <g id="gRA" transform="translate(7.081 1.77)">
        <path d="m165.393 56.937-2.25 3.687c4.218 1.782 9.125 3.375 14.687 4.75.469-1.656.875-2.968 1.25-3.937l-.187-.344c-5.407-.906-9.907-2.281-13.5-4.156zm-4.688 10.562c-.322-.029-.476.204-.5.72.219.624.125 1.843-.25 3.624a148.1 148.1 0 0 0-.969 5.625c-.28 2-.593 4.75-.906 8.25l4.5 1.031c.938-1.406 2.219-2.78 3.844-4.093 1.656-1.344 3.781-2.25 6.375-2.72 2.625-.5 4.781-.593 6.437-.312 1.657.25 2.907.907 3.782 2 .906 1.063 1.25 2.532 1 4.375-.22 1.844-1.188 3.313-2.907 4.438-1.687 1.125-3.687 1.844-6 2.156-2.28.313-5.562.25-9.812-.187l-.188.25c.375 1.187.594 2.562.625 4.125 5.75.25 10.094-.094 13.032-1 2.968-.907 5.25-2.25 6.843-4.032 1.625-1.78 2.563-3.656 2.813-5.625.25-2-.156-3.937-1.219-5.812-1.031-1.875-3.031-3.156-5.969-3.875-2.906-.75-5.968-.781-9.187-.063-3.219.688-6.219 2.188-9.031 4.47a67.7 67.7 0 0 1 .468-3.907c.22-1.531.625-3.906 1.22-7.125l.687-.688c.218-.25.218-.468-.032-.656l-4.28-.844a1.108 1.108 0 0 0-.376-.125z" id="path2043"/>
        <path d="m166.125 53.292 13.851 4.923" class="stroke" id="path9627"/>
        <path d="M156.371 61.622c-.22 3.1-.472 7.61-.697 12.75" class="stroke" id="path10514"/>
        <path d="M155.884 80.771c-.84 2.802-2.28 9.202-.427 10.48 1.742 1.199 5.594-1.006 11.413-3.624" class="stroke" id="path10516"/>
        <text x="149.492" y="66.648" class="number">2</text>
        <text x="178.485" y="54.513" class="number">1</text>
    </g>
    <text x="226.317" y="122.671" id="cellYA" class="label cell">YA</text>
    <g id="gYA" transform="translate(0 2)">
        <path d="M233.404 61.466a262.176 262.176 0 0 0 2.532 8.156 179.278 179.278 0 0 1 8.25-2.953c.062-2.062.093-3.86.093-5.39 0-1.563-.047-2.453-.14-2.672-.188-.375-.094-.672.28-.89l4.642.468c.437.062.53.312.28.75l-.609.844c-.218 2.25-.375 4.218-.468 5.906 1.28-.25 2.75-.36 4.406-.328 1.687 0 3.36.469 5.016 1.406 1.687.938 2.968 2.14 3.843 3.61.875 1.437 1.313 2.953 1.313 4.546.031 1.563-.282 3.094-.938 4.594-.656 1.469-1.687 2.656-3.093 3.562-1.376.907-2.922 1.47-4.641 1.688-1.688.219-3.438.016-5.25-.61-1.781-.624-3.719-1.921-5.813-3.89l2.954-3.14c1.624 1.687 3 2.734 4.125 3.14 1.156.406 2.218.594 3.187.562 1-.062 1.844-.28 2.531-.656.719-.375 1.344-1.078 1.875-2.11.563-1.03.797-2.046.703-3.046a7.128 7.128 0 0 0-.843-2.953c-.5-.938-1.297-1.672-2.391-2.203-1.094-.531-2.438-.797-4.031-.797-1.563 0-3.5.39-5.813 1.172-2.281.75-5.015 1.781-8.203 3.093 1.531 4.313 2.938 8.016 4.219 11.11 1.281 3.062 2.906 6.687 4.875 10.875v.562c-1.75.375-3.406.97-4.969 1.782-1.625-4.782-3.047-8.735-4.265-11.86a371.17 371.17 0 0 1-3.844-10.781 324.046 324.046 0 0 0-9.797 4.453 17.848 17.848 0 0 0-2.719-4.078l.235-.422a210.091 210.091 0 0 0 10.968-3.797l-1.922-5.765c-.625-1.97-1.234-3.172-1.828-3.61-.343-.281-.312-.61.094-.984l5.016-1.406c.5-.032.656.203.468.703l-.328 1.36" id="path2053"/>
        <path d="M212.769 73.654s10.492-3.245 14.998-4.361" class="stroke" id="path10536"/>
        <text x="213.798" y="69.684" class="number">1</text>
        <path d="M254.098 51.274s-1.234 8.347-1.63 11.09" class="stroke" id="path10542"/>
        <text x="256.388" y="59.381" class="number">2</text>
        <path d="M234.73 51.638s3.635 11.223 4.64 14.114" class="stroke" id="path10548"/>
        <text x="228.19" y="56.357" class="number">3</text>
    </g>
    <text x="288.317" y="122.671" id="cellMA" class="label cell">MA</text>
    <g id="gMA" transform="translate(2.36 .82)">
        <path d="M303.985 56.42c-.47.063-.625.313-.5.75.343.438.625 2.813.843 7.125-5.468.281-10.687.313-15.625.094l-.218.312c.5 1.532.718 2.938.656 4.188 5-.344 10.125-.656 15.375-.938.062 1.625.094 2.907.094 3.875.03.938.03 1.782.03 2.532-3.937.125-6.5.125-7.718 0-1.187-.157-2.344-.563-3.469-1.25l-2.218 3.375c1.625.937 3.218 1.468 4.78 1.625 1.595.125 4.5.125 8.688-.032.032 1.282.063 3.063.094 5.375-2.437-.437-4.625-.531-6.562-.312-1.907.219-3.563.812-4.938 1.781-1.344.969-2.219 2.156-2.656 3.594-.438 1.406-.5 2.625-.188 3.656.344 1 .97 1.906 1.875 2.688.938.78 2.063 1.375 3.375 1.78 1.344.438 2.625.657 3.875.657s2.532-.156 3.813-.437c1.281-.282 2.437-.907 3.469-1.875 1.03-.97 1.625-2 1.812-3.125.188-1.125.313-2.313.344-3.532 3.281 1.25 6.812 3.219 10.594 5.875.812-1.718 1.656-3.125 2.562-4.187v-.563c-4.812-2.218-9.187-3.875-13.125-4.968-.062-2.907-.094-5.094-.125-6.594 4.656-.25 8.063-.469 10.219-.656l-.375-4.032c-2.625.438-5.938.75-9.938.969 0-.531-.03-1.219-.062-2.062 0-.875-.031-2.344-.094-4.407 5.438-.281 9.656-.562 12.656-.843l-.656-4.125c-3.406.53-7.406.968-12.031 1.28-.031-1.655-.094-3.5-.156-5.53l.656-1.094c.219-.406.125-.656-.281-.781l-4.875-.188zm-3.813 29.844c1.201.035 2.711.32 4.563.812-.032 1.438-.125 2.625-.282 3.594-.156.938-.593 1.656-1.343 2.125a6.711 6.711 0 0 1-2.407.844c-.843.094-1.968 0-3.406-.25-1.406-.281-2.312-1.063-2.687-2.344-.375-1.312-.032-2.375 1-3.219 1.03-.875 2.187-1.375 3.468-1.5.328-.039.694-.074 1.094-.062z" id="path2075"/>
        <path d="M284.978 61.287s11.535-.01 16.25-.188" class="stroke" id="path10558"/>
        <text x="279.37" y="64.092" class="number">1</text>
        <path d="M284.978 71.287s12.568-.158 17.282-.336" class="stroke" id="path10564"/>
        <text x="279.356" y="73.069" class="number">2</text>
        <path d="M312.429 50.559s-.295 6.99-.379 9.838" class="stroke" id="path10570"/>
        <text x="316.388" y="58.561" class="number">3</text>
        <path d="M293.546 101.117c-12.803-3.733-8.166-12.95-6.955-17.292" class="stroke" id="path10576"/>
        <path d="M316.704 83.592c.626.208 10.327 3.86 10.327 3.86" class="stroke" id="path11463"/>
    </g>
    <text x="352.317" y="122.671" id="cellHA" class="label cell">HA</text>
    <g id="gHA">
        <path d="M375.502 60.506c-.406.063-.563.313-.438.75.282.438.438 1.563.47 3.407.062 1.843.124 3.25.187 4.218-4.094.188-8.5.125-13.22-.187l-.218.344c.188 1.218.313 2.562.406 4.062a712.53 712.53 0 0 0 13.188-.469c0 .375.031 1.282.094 2.72.093 1.437.125 3.437.125 5.968.03 2.531.062 4.156.062 4.906-2.031-.437-3.812-.594-5.344-.5-1.53.094-3 .5-4.406 1.25-1.375.719-2.281 1.781-2.687 3.156-.375 1.375-.407 2.563-.125 3.563.312.969.78 1.781 1.406 2.437.625.657 1.594 1.22 2.906 1.688 1.344.5 2.563.75 3.656.781a14.008 14.008 0 0 0 3.375-.312 7.409 7.409 0 0 0 3.125-1.47c.938-.718 1.532-1.624 1.782-2.718.25-1.125.437-2 .53-2.625 2.188 1.063 4.72 2.594 7.595 4.563.75-1.813 1.53-3.282 2.375-4.375v-.375c-3.813-1.72-7.063-3-9.782-3.875 0-.938-.062-2.72-.156-5.313-.094-2.625-.156-4.719-.219-6.312-.03-1.625-.062-2.75-.093-3.375 3.437-.157 6.218-.344 8.375-.532l-.594-4.03c-2.375.28-5 .53-7.875.75-.063-1.876-.125-4-.188-6.376l.47-.75c.343-.344.312-.594-.095-.781l-4.687-.188zm-24.906 1.25c-.532.032-.657.25-.407.657.282.312.282 2.156 0 5.5-.25 3.343-.468 7.562-.656 12.656-.156 5.094-.094 8.781.188 11.094.312 2.28.937 4.125 1.875 5.53.937 1.438 2.062 2.063 3.375 1.876 1.312-.156 3.093-1.563 5.343-4.25a39.59 39.59 0 0 1-3.093-3.75l-.25.031c-.907 1.844-1.532 2.688-1.907 2.5-.375-.187-.718-1.031-1.03-2.531-.313-1.5-.407-4.938-.282-10.281.156-5.344.562-10.938 1.219-16.813l.656-.75c.375-.375.312-.656-.156-.812l-4.875-.657zm20.75 27.282c.145-.013.3-.006.468 0 1.014.035 2.446.32 4.25.812a21.447 21.447 0 0 1-.28 2.813c-.126.906-.563 1.53-1.313 1.875a7.59 7.59 0 0 1-2.313.562c-.781.063-1.719-.062-2.844-.375-1.093-.312-1.718-1.031-1.875-2.156-.125-1.125.157-1.938.875-2.438.75-.53 1.625-.875 2.625-1.03.125-.02.261-.051.407-.063z" id="path2099"/>
        <path d="M347.168 64.07c-2.195 7.58-1.715 15.51-.959 23.828" class="stroke" id="path12358"/>
        <text x="344.538" y="62.648" class="number">1</text>
        <path d="M360.986 65.951s6.889-.01 11.603-.188" class="stroke" id="path12364"/>
        <text x="363.044" y="62.479" class="number">2</text>
        <path d="M382.813 53.321s.62 6.996.982 11.909" class="stroke" id="path12370"/>
        <text x="385.495" y="56.783" class="number">3</text>
        <path d="M362.4 96.441c-4.53-14.553 6.454-12.85 10.215-12.971" class="stroke" id="path12431"/>
        <path d="m383.884 84.289 7.928 3.86" class="stroke" id="path13318"/>
    </g>
    <text x="416.317" y="122.671" id="cellNA" class="label cell">NA</text>
    <g id="gNA">
        <path d="M426.603 58.471c-.313.094-.5.313-.532.656.313.563.22 1.688-.28 3.375a176.841 176.841 0 0 1-1.22 4.22c-3.03.312-6.312.468-9.843.468.375 1.344.625 2.781.718 4.312 2.688-.25 5.25-.5 7.72-.78-.813 2.093-1.97 4.656-3.47 7.718-1.468 3.031-3.375 6.313-5.75 9.812l.032.407c1.187.625 2.5 1.531 3.906 2.718 2.625-4.812 4.656-8.874 6.094-12.187a188.752 188.752 0 0 0 3.78-9.125c3.97-.562 7.126-1.125 9.438-1.688l-1.312-3.843c-1.906.625-4.156 1.156-6.719 1.593.5-1.593 1.063-3.406 1.656-5.406l.688-.75c.406-.375.406-.625 0-.781l-4.906-.719zm16.25 7.313-1.782 3.656c3.532 1.375 7.188 3.406 10.97 6.094.968-1.563 1.812-2.906 2.53-4.063-4.218-2.156-8.125-4.062-11.718-5.687zm-4.688 9.062c-.594 0-.812.25-.656.75.219.407.375 1.594.469 3.594.093 2 .156 4.25.156 6.719-1.781-.344-3.438-.469-4.969-.375-1.5.062-2.906.375-4.219.937-1.28.532-2.28 1.438-2.968 2.719-.688 1.281-1 2.562-.938 3.844.094 1.281.594 2.375 1.5 3.312.906.938 2.031 1.563 3.344 1.875 1.344.344 2.562.532 3.656.532 1.125 0 2.25-.157 3.375-.47 1.125-.28 2.125-.843 3-1.687.875-.812 1.406-1.812 1.625-2.969.25-1.187.406-2.062.469-2.656 1.125.469 2.375 1.094 3.75 1.875 1.375.781 3.187 1.875 5.406 3.281.719-1.593 1.5-3 2.344-4.218-4.688-2.344-8.438-4-11.25-4.938-.031-3.312-.063-6.75-.094-10.312l.406-.688c.282-.375.22-.656-.187-.812l-4.219-.313zm-3.906 14a5.405 5.405 0 0 1 1.437.156c.844.22 1.625.407 2.344.594-.031.719-.125 1.5-.25 2.344-.125.844-.406 1.531-.875 2.031-.469.5-1.031.813-1.687.969-.657.125-1.563.187-2.72.156-1.124-.062-2-.312-2.624-.719-.594-.406-.844-1-.75-1.812.094-.844.344-1.594.75-2.219.406-.656 1.25-1.093 2.562-1.312a10.58 10.58 0 0 1 1.813-.188z" id="path2129"/>
        <text x="451.097" y="62.389" class="number">3</text>
        <path d="M409.53 63.764c1.476 0 10.475-1.623 10.475-1.623" class="stroke" id="path14223"/>
        <path d="m437.708 52.994-3.983 8.704" class="stroke" id="path15110"/>
        <path d="m444.789 62.731 11.36 5.458" class="stroke" id="path15997"/>
        <path d="m445.527 74.976.147 10.326" class="stroke" id="path16884"/>
        <text x="438.768" y="55.798" class="number">2</text>
        <text x="448.949" y="83.946" class="number">4</text>
        <text x="408.688" y="60.258" class="number">1</text>
    </g>
    <text x="484.317" y="122.671" id="cellTA" class="label cell">TA</text>
    <g id="gTA">
        <path d="M489.86 58.914c-.438.094-.656.313-.688.657.313.562.25 1.78-.187 3.625a525.965 525.965 0 0 1-.938 4.125c-2.843.187-5.906.25-9.156.187l-.219.313c.407 1.468.657 2.906.75 4.28 2.625-.218 5.125-.468 7.532-.718-.313 1.125-.844 3.031-1.594 5.688-.719 2.625-1.625 5.468-2.719 8.53-1.094 3.032-2.656 6.376-4.687 10.063l.062.625a39.516 39.516 0 0 1 4.344 2.375c2-4.78 3.5-8.75 4.5-11.937a441.816 441.816 0 0 0 2.812-9.094c.844-2.844 1.5-5.125 1.938-6.812 4.906-.625 8.719-1.188 11.437-1.688l.032-.281-1.219-3.938c-2.719.813-5.781 1.438-9.219 1.875.438-1.75.875-3.562 1.313-5.468l.781-.907c.281-.343.219-.562-.188-.687l-4.687-.813zm21.406 14.22c-1.539.015-3.094.062-4.625.124-3.031.094-5.531.25-7.531.469l.375 4.031c1.844-.344 4.187-.531 7.062-.562 2.907-.063 5.875.062 8.907.343.093-1.468.25-2.937.437-4.375a152.35 152.35 0 0 0-4.625-.03zM497.83 85.507l-4.032.125c.063 1.781.282 3.344.657 4.688a8.903 8.903 0 0 0 2.031 3.625c.969 1.03 2.531 1.78 4.719 2.25 2.218.437 6.968.562 14.218.406.094-1.5.375-2.906.875-4.219l-.312-.406c-6.625.469-10.906.531-12.844.219-1.937-.313-3.25-.813-3.937-1.532-.688-.718-1.157-2.437-1.375-5.156z" id="path2143"/>
        <path d="M473.825 63.886c1.476 0 10.475-1.623 10.475-1.623" class="stroke" id="path17815"/>
        <path d="m502.003 53.117-3.983 8.704" class="stroke" id="path17817"/>
        <text x="503.063" y="55.921" class="number">2</text>
        <text x="472.983" y="60.38" class="number">1</text>
        <path d="m505.865 69.665 11.507.295" class="stroke" id="path17831"/>
        <text x="510.686" y="66.216" class="number">3</text>
        <path d="M492.718 92.82c2.213 8.28 13.277 6.97 18.293 6.933" class="stroke" id="path20494"/>
        <text x="487.394" y="92.486" class="number">4</text>
    </g>
    <text x="546.317" y="122.671" id="cellSA" class="label cell">SA</text>
    <g id="gSA" transform="translate(6)">
        <path d="M541.89 74.677c-.063-1.312-.313-2.672-.75-4.078l.234-.328c5.781.219 10.969.063 15.563-.469a69.37 69.37 0 0 1-1.875-4.781c-.594-1.719-1.063-2.75-1.407-3.094-.343-.406-.28-.687.188-.843l4.594-.797c.312.03.406.234.281.609l-.14.844c.812 2.937 1.656 5.422 2.53 7.453 3.813-.688 7.391-1.625 10.735-2.813l1.687 3.938c-3.187.969-6.718 1.781-10.593 2.437a85.313 85.313 0 0 0 2.765 4.594c1.094 1.656 3.407 4.422 6.938 8.297l-3.703 3.047c-2-1.094-3.985-1.828-5.953-2.203-1.938-.375-4.032-.578-6.282-.61-2.25-.062-3.953.22-5.109.844-1.156.594-1.969 1.297-2.438 2.11a4.538 4.538 0 0 0-.609 2.625c.063.906.547 1.765 1.453 2.578.906.812 2.344 1.406 4.313 1.78 2 .345 4.062.5 6.187.47 2.125-.063 4.594-.313 7.406-.75l.094.328a97.384 97.384 0 0 0-.844 4.406c-3.656.156-6.859.14-9.609-.047-2.75-.156-5.062-.61-6.937-1.36-1.844-.75-3.344-1.827-4.5-3.234-1.125-1.406-1.75-2.78-1.875-4.125-.094-1.343.218-2.656.937-3.937.75-1.281 1.86-2.375 3.328-3.281a11.37 11.37 0 0 1 4.875-1.688 28.07 28.07 0 0 1 5.11-.094c1.687.125 3.796.422 6.328.891-1.532-2-2.735-3.766-3.61-5.297a111.644 111.644 0 0 1-2.53-4.687c-4.75.625-10.345 1.047-16.782 1.265" id="path2155"/>
        <path d="M538.8 67.364c1.476 0 13.5-1.31 13.5-1.31" class="stroke" id="path20500"/>
        <text x="538.879" y="64.571" class="number">1</text>
        <path d="m559.84 53.319 4.819 11.862" class="stroke" id="path20506"/>
        <text x="562.494" y="54.902" class="number">2</text>
        <path d="M551.273 80.261c-3.84.062-10.58 3.11-11.564 7.989-.974 4.823 2.446 8.218 8.883 13.847" class="stroke" id="path21397"/>
    </g>
    <text x="610.317" y="122.671" id="cellKA" class="label cell">KA</text>
    <g id="gKA" transform="translate(-2)">
        <path d="M620.09 61.544c-.438.094-.657.312-.688.656.312.563.25 1.938-.188 4.125a116.89 116.89 0 0 1-1.28 5.625c-3.75.406-6.72.656-8.938.781l-.25.282c.218.968.343 2.406.375 4.312 2.312-.437 4.875-.875 7.656-1.312-.188.593-.656 2.03-1.375 4.312-.719 2.281-1.656 4.844-2.813 7.688a76.088 76.088 0 0 1-4.218 8.687v.406c1.25.5 2.656 1.157 4.187 1.969a2155.58 2155.58 0 0 1 3.844-9.844c1.156-2.968 2.125-5.75 2.906-8.343a397.362 397.362 0 0 0 1.688-5.47c3.78-.53 6.156-.437 7.156.313s1.531 2.094 1.562 4.032c.032 1.906 0 3.5-.062 4.75a28.478 28.478 0 0 1-.375 3.875c-.188 1.312-.531 2.53-1.063 3.656-.5 1.094-1.031 1.844-1.593 2.25-.532.375-1.125.281-1.782-.281-.656-.594-1.468-1.47-2.406-2.657-.469.969-1.406 2.094-2.844 3.375 1.532 1.313 2.532 2.25 3.032 2.813a8.02 8.02 0 0 0 1.656 1.344c.594.375 1.406.5 2.437.343 1.032-.156 2.094-.843 3.188-2.062a11.39 11.39 0 0 0 2.375-4.125c.531-1.531.906-2.969 1.094-4.281.187-1.313.28-2.72.312-4.25.063-1.563.031-3.532-.125-5.907-.156-2.406-.906-4.125-2.25-5.156-1.344-1.031-2.562-1.687-3.656-1.937-1.063-.25-2.969-.25-5.688 0a199.85 199.85 0 0 0 1.75-7.97l.5-.562c.313-.28.313-.5 0-.687l-4.125-.75zm19.843 6.469-3.187 2.718c2 2.22 3.78 4.657 5.343 7.313 1.594 2.625 3.063 5.875 4.407 9.781a115.075 115.075 0 0 1 4.312-2.437v-.313c-1.594-3.531-3.219-6.562-4.875-9.094-1.656-2.53-3.656-5.187-6-7.968z" id="path2171"/>
        <path d="m603.467 70.027 11.802-.885" class="stroke" id="path22288"/>
        <text x="601.901" y="67.736" class="number">1</text>
        <path d="m629.874 58.372-3.134 10.27" class="stroke" id="path23179"/>
        <text x="629.04" y="56.879" class="number">2</text>
        <path d="M644.465 65.72c.835.835 8.346 13.145 8.346 13.145" class="stroke" id="path24072"/>
        <text x="645.699" y="65.038" class="number">3</text>
    </g>
    <text x="682.317" y="122.671" id="cellA" class="label cell">A</text>
    <g id="gA">
        <path d="M680.408 58.69c-.235.07-.305.328-.188.75.25.344.25 2.094-.031 5.25-2.688.094-5.656.063-8.875-.062l-.188.093a76.92 76.92 0 0 1 .188 4.125c3.094-.125 5.969-.25 8.594-.406a122.735 122.735 0 0 0-.157 7.906 19.218 19.218 0 0 0-4.906 3.094c-1.437 1.25-2.625 2.781-3.531 4.594-.875 1.781-1.25 3.75-1.156 5.906.093 2.125.625 3.813 1.593 5.031 1 1.188 2.313 1.875 3.97 2.094 1.655.25 3.218.031 4.655-.687 1.438-.688 2.532-1.313 3.282-1.844l.593 1.5c2.063-1.125 3.563-1.813 4.47-2.094l.03-.531a64.21 64.21 0 0 1-1.312-2.469c1.75-2.062 3.156-4.156 4.219-6.281a58.477 58.477 0 0 0 2.875-6.938c1.093.157 2.375.5 3.843 1.032 1.5.531 2.75 1.531 3.782 3 1.03 1.468 1.5 2.968 1.406 4.53-.094 1.563-.688 2.97-1.781 4.22-1.094 1.25-2.594 2.25-4.532 2.968a27.302 27.302 0 0 1-5.906 1.5v.5c1 1.375 1.688 2.72 2.094 4a30.137 30.137 0 0 0 6.719-2.343c2.218-1.063 4.125-2.657 5.718-4.75 1.625-2.125 2.407-4.25 2.344-6.375-.062-2.157-.781-4.188-2.156-6.125-1.375-1.938-3.156-3.282-5.313-4.032-2.156-.78-3.843-1.312-5.093-1.562l.593-2 .75-.656c.375-.375.313-.657-.187-.813l-4.344-.875c-.562-.062-.812.188-.75.75.188.156.031 1.219-.469 3.219-3 .156-5.53.531-7.562 1.094 0-1.813.094-4.094.281-6.844.844-.094 2.5-.25 4.969-.469 2.5-.25 5.562-.687 9.187-1.312l-1.156-3.907c-3.719.907-7.969 1.594-12.719 2.032.125-1.25.25-2.594.375-4l.625-.594c.344-.344.25-.594-.25-.719l-4.312-.5a.675.675 0 0 0-.281 0zm9.843 18.75c-.656 2.031-1.343 3.844-2.093 5.469-.75 1.594-1.563 2.969-2.407 4.125a58.181 58.181 0 0 1-1.062-3.406c-.375-1.344-.656-3-.844-4.97 2.531-.718 4.656-1.124 6.406-1.218zm-10.218 2.813c.156 1.625.406 3.25.718 4.875.344 1.625.844 3.468 1.532 5.53-.563.47-1.282.97-2.157 1.532-.875.531-1.875.844-3 .906-1.125.063-1.906-.218-2.375-.843-.437-.625-.656-1.625-.656-3 .031-1.407.344-2.75.938-4.032.625-1.312 1.437-2.375 2.468-3.187 1.063-.844 1.907-1.438 2.532-1.781z" id="path2195"/>
        <path d="m664.042 61.926 12.982-.295" class="stroke" id="path24971"/>
        <text x="663.656" y="59.193" class="number">1</text>
        <path d="m690.464 50.75-3.134 10.268" class="stroke" id="path24977"/>
        <text x="691.696" y="56.928" class="number">2</text>
        <path d="m700.333 70.486-5.741 15.59" class="stroke" id="path24983"/>
        <text x="700.793" y="73.306" class="number">3</text>
        <path d="M678.083 100.033c-20.13-2.8-8.914-18.504-5.66-23.889" class="stroke" id="path24989"/>
    </g>
    <text x="98.317" y="202.671" id="cellWI" class="label cell">WI</text>
    <g id="gWI">
        <path d="M114.456 143.037a.448.448 0 0 0-.313.125l-.531.812c-3.531.813-6.031 1.344-7.531 1.625-1.47.25-3.188.407-5.125.438l-.22.594c1.095 1.218 1.813 2.406 2.188 3.562 3.875-1.125 7.25-2.031 10.094-2.719a131.017 131.017 0 0 1-1.406 6.844c-.25.063-.906.25-1.938.531-1.03.25-2.875 1.094-5.53 2.563a18.957 18.957 0 0 0-6.5 5.875c-1.657 2.437-2.532 4.75-2.626 6.969-.094 2.218.156 3.906.781 5.062a6.994 6.994 0 0 0 2.688 2.625c1.125.594 2.219.875 3.312.813 1.125-.094 2.313-.594 3.532-1.47 1.25-.874 2.656-2.812 4.218-5.843 1.594-3.062 2.782-5.781 3.594-8.156.813-2.375 1.438-4.406 1.875-6.063 1.656-.156 3.469-.187 5.438-.093 1.968.093 3.75.562 5.312 1.406 1.594.812 2.75 2.031 3.469 3.625.75 1.594 1.062 3.156.969 4.719-.094 1.562-.782 3.218-2.063 4.937-2.375-2.437-4.469-3.812-6.312-4.125-1.813-.344-3.438-.156-4.875.563-1.438.718-2.25 2.156-2.438 4.343-.187 2.188.281 3.938 1.406 5.25 1.157 1.282 2.813 1.938 4.97 1.938 2.187.031 4.312-.625 6.405-1.938 2.125-1.343 3.813-2.968 5.032-4.906 1.218-1.937 1.875-3.937 2-6a11.712 11.712 0 0 0-1.157-6.062c-.906-1.938-2.75-3.594-5.53-5-2.75-1.438-5.188-2.157-7.282-2.157-2.063 0-3.5 0-4.344.032a421.314 421.314 0 0 0 1.688-7.032l.656-.312c.75-.344.781-.75.094-1.188a85.626 85.626 0 0 1-3.657-2.062.52.52 0 0 0-.343-.125zm-3.875 15.281c-.282 1.031-.844 2.75-1.657 5.156a39.601 39.601 0 0 1-3.093 6.844c-1.25 2.188-2.188 3.5-2.844 3.938-.656.406-1.344.5-2.031.312-.688-.219-1.22-.719-1.625-1.5-.375-.812-.532-1.906-.438-3.281.125-1.406.875-3.094 2.219-5.063 1.375-1.968 3.031-3.437 4.969-4.406 1.968-.969 3.468-1.625 4.5-2zm9.468 12.281c.192-.002.375 0 .594.032 1.781.25 3.375 1.53 4.75 3.812-.25.188-.844.563-1.781 1.156-.906.563-2.094.782-3.531.625-1.407-.156-2.094-1.187-2.094-3.093.027-1.668.72-2.515 2.062-2.532z" class="old" id="path2261"/>
        <path d="m99.518 142.915 16.064-2.712" class="stroke" id="path25876"/>
        <text x="101.079" y="139.442" class="number">1</text>
        <path d="M104.838 181.407c-16.77.705-12.257-15.7-11.266-20.341" class="stroke" id="path26767"/>
        <path d="M124.866 152.93c11.214.886 11.527 7.145 12.831 11.891" class="stroke" id="path30313"/>
    </g>
    <text x="164.317" y="202.671" id="cellRI" class="label cell">RI</text>
    <g id="gRI">
        <path d="m188.753 140.372-4.657.187c-.562.094-.687.375-.375.875.344.625.625 2.219.813 4.781.187 2.563.344 5.375.469 8.407.125 3 .062 5.656-.157 7.968a21.048 21.048 0 0 1-1.625 6.594c-.875 2.125-2.343 3.906-4.406 5.313-2.062 1.375-4.656 2.5-7.75 3.375l-.125.406c1.281 1.562 2.156 2.937 2.625 4.125 3.094-1.469 5.875-3.156 8.375-5.094 2.5-1.969 4.313-4.312 5.406-7 1.125-2.719 1.75-5.344 1.907-7.906.156-2.594.187-5.406.093-8.406-.093-3.032-.28-7-.562-11.907l.281-.968c.219-.375.125-.625-.312-.75zm-22.719 1c-.299 0-.414.18-.344.53.063.345-.031 1.282-.281 2.813-.219 1.532-.469 4.125-.75 7.782-.25 3.656-.125 7.156.406 10.5.531 3.312 1.594 4.937 3.156 4.843 1.563-.125 2.782-.75 3.657-1.843.875-1.094 2-2.594 3.406-4.5l-3.281-2.938c-.47 1.188-.97 2.156-1.5 2.906-.532.75-.907 1.125-1.157 1.125-.218-.03-.406-1.156-.562-3.375-.125-2.25-.094-4.78.094-7.593.218-2.813.593-5.5 1.125-8.063l.656-.719c.219-.375.156-.593-.156-.687l-4.125-.719a1.301 1.301 0 0 0-.344-.062z" id="path2039"/>
        <path d="m161.393 143.427-.885 16.67" class="stroke" id="path31200"/>
        <path d="m192.655 141.362 1.18 18.736" class="stroke" id="path32087"/>
        <text x="154.485" y="147.998" class="number">1</text>
        <text x="194.795" y="147.261" class="number">2</text>
    </g>
    <text x="292.317" y="202.671" id="cellMI" class="label cell">MI</text>
    <g id="gMI">
        <path d="M303.914 142.12c-.078 0-.14.063-.187.157l-.532.5c-5.125.656-9.78 1.093-14 1.28l-.25.563c.563 1 .938 2.313 1.094 3.97 4.875-1.095 8.719-1.782 11.563-2.063-1 4.312-2.094 8.187-3.313 11.625-1.312.03-2.812.187-4.5.437-1.656.219-3.375.844-5.125 1.875a12.039 12.039 0 0 0-4.156 3.969c-1.063 1.625-1.5 3.344-1.281 5.125.218 1.75.75 3.062 1.593 3.937.844.875 2.032 1.438 3.532 1.688 1.53.25 3.062 0 4.593-.719 1.563-.75 2.97-2.156 4.25-4.219 1.313-2.062 2.657-4.843 4-8.375 1.97.188 4.063.594 6.313 1.25 2.25.625 4.187 1.313 5.781 2.063a25.162 25.162 0 0 1-3.906 6.531c-1.625 1.969-3.875 3.781-6.781 5.469v.437c1.312 1.188 2.375 2.438 3.187 3.75 3.469-2.968 5.969-5.562 7.5-7.75 1.563-2.187 2.844-4.343 3.844-6.5 1.719.97 3.594 2.063 5.625 3.313 1.125-1.938 2.125-3.313 3.031-4.156v-.344a146.642 146.642 0 0 0-7.031-3.188c.687-2.406 1.25-5.343 1.687-8.843l.47-.657c.405-.343.405-.625 0-.812l-4.438-.938c-.563-.156-.813 0-.72.47.126.343.063 1.593-.187 3.75-.25 2.124-.562 3.937-.937 5.437-1.344-.47-3.094-.97-5.25-1.5-2.156-.563-4.469-.97-6.938-1.25 1.282-3.5 2.72-7.594 4.313-12.282l.906-.562c.781-.375.813-.781.125-1.219a52.564 52.564 0 0 0-3.594-2.062c-.109-.094-.203-.157-.28-.157zm-7 19.657c-1.156 2.875-2.187 5.03-3.125 6.468-.937 1.407-1.844 2.282-2.719 2.657-.843.343-1.656.375-2.437.062-.75-.344-1.156-1.062-1.219-2.156-.062-1.094.25-2.156.938-3.188.718-1.03 1.812-1.875 3.28-2.53 1.47-.688 2.657-1.063 3.563-1.126a100.85 100.85 0 0 0 1.72-.187z" id="path2071"/>
        <path d="m296.526 140.624 16.925-.798-5.907 13.718" class="stroke" id="path32105"/>
        <text x="295.26" y="137.967" class="number">1</text>
        <path d="M288.56 178.39c-16.228-5.033-7.893-14.143-4.131-19.325" class="stroke" id="path32996"/>
        <path d="m326.092 148.829-3.976 11.823" class="stroke" id="path33883"/>
        <text x="326.957" y="152.154" class="number">2</text>
    </g>
    <text x="358.317" y="202.671" id="cellHI" class="label cell">HI</text>
    <g id="gHI">
        <path d="m363.365 144.726.469-.516c.156-.187.328-.187.515 0 .938.594 2.031 1.454 3.281 2.579.407.406.375.718-.093.937l-1.219.516c-2.75 4.312-4.672 7.375-5.766 9.187a24.035 24.035 0 0 0-2.437 5.766c-.563 2.031-.75 3.984-.563 5.86.188 1.843.735 3.343 1.641 4.5.906 1.124 2.234 1.89 3.984 2.296 1.782.406 3.594.5 5.438.281 1.844-.218 3.531-.922 5.062-2.109 1.563-1.188 2.61-2.922 3.141-5.203.531-2.281.687-5.328.469-9.14-.188-3.813-.938-8.438-2.25-13.876l4.172-1.265c1.156 3 2.734 6.078 4.734 9.234 2.031 3.125 4.516 6.094 7.453 8.906l-.047.516c-.781.5-1.984 1.719-3.61 3.656-2.437-3.5-4.5-6.531-6.187-9.094.063.657.188 2.141.375 4.453.188 2.313.016 4.813-.515 7.5-.5 2.688-1.844 5.032-4.032 7.032-2.187 1.968-4.687 3.156-7.5 3.562-2.812.438-5.609.297-8.39-.422-2.781-.687-4.86-2.015-6.235-3.984-1.343-1.969-2.062-4.172-2.156-6.61-.062-2.468.235-4.734.89-6.796a30.539 30.539 0 0 1 2.626-5.953c1.094-1.907 2.562-4.266 4.406-7.079-1.781.25-4.86.891-9.234 1.922l-.938-4.734c3.875-.219 8.047-.86 12.516-1.922" id="path2093"/>
        <path d="m350.711 144.167 14.396-3.339" class="stroke" id="path34778"/>
        <text x="350.339" y="140.888" class="number">1</text>
        <path d="M373.783 154.944s-2.086-14.604 1.147-15.752c3.234-1.147 9.467 8.059 11.788 11.162" class="stroke" id="path35669"/>
    </g>
    <text x="422.317" y="202.671" id="cellNI" class="label cell">NI</text>
    <g id="gNI">
        <path d="M419.24 142.58c-.53.031-.78.25-.75.656.25.438.22 2.281-.062 5.5-.25 3.219-.437 7.375-.594 12.5-.156 5.125-.093 8.844.22 11.156.343 2.313 1 4.188 1.968 5.594.969 1.438 2.125 2.031 3.437 1.813 1.313-.188 3.063-1.563 5.25-4.125a29.91 29.91 0 0 1-3.25-3.875h-.187c-.75 1.843-1.313 2.718-1.688 2.625-.343-.094-.687-.907-1.062-2.407-.344-1.53-.469-5-.344-10.437.125-5.438.5-11.094 1.125-16.938l.563-.75c.406-.406.406-.687 0-.875l-4.625-.437zm33.5 3.625c-3.374.219-6.593.406-9.656.594-3.03.187-6.343.406-9.937.625l.25 4.062c4.125-.469 7.531-.75 10.219-.844 2.718-.093 5.812-.156 9.28-.187-.155-1.563-.218-2.969-.155-4.25zm-17.062 18.656-4.344.219c.25 2.094.688 3.906 1.344 5.406.656 1.5 1.531 2.719 2.625 3.688 1.094.968 2.75 1.687 4.938 2.156 2.187.469 6.937.625 14.28.437.095-1.562.282-3.03.563-4.406l-.187-.25c-6.594.5-10.844.625-12.75.344-1.875-.313-3.375-1.063-4.531-2.219-1.157-1.187-1.813-2.969-1.938-5.375z" id="path2121"/>
        <path d="M414.797 143.92c-2.069 5.736-.99 16.79-.763 22.943" class="stroke" id="path36556"/>
        <text x="407.554" y="150.765" class="number">1</text>
        <path d="m436.181 142.91 11.507.294" class="stroke" id="path37453"/>
        <text x="441.003" y="139.46" class="number">2</text>
        <path d="M431.38 172.97c2.213 8.28 13.277 6.971 18.293 6.934" class="stroke" id="path37459"/>
        <text x="426.682" y="171.802" class="number">3</text>
    </g>
    <text x="478.317" y="202.671" id="cellTI" class="label cell">CHI</text>
    <g id="gTI">
        <path d="M509.548 149.925c-5.531 1.032-10.531 1.735-15 2.11-.344 2-.625 3.703-.844 5.11-.218 1.374-.593 3.421-1.125 6.14 2.657-1.719 5.125-2.86 7.407-3.422 2.312-.563 4.296-.781 5.953-.656 1.656.093 3.28.578 4.875 1.453 1.593.844 2.86 2.11 3.797 3.797.968 1.656 1.25 3.578.843 5.765-.406 2.157-1.36 3.938-2.859 5.344-1.469 1.406-3.203 2.438-5.203 3.094-2 .687-4.25 1.094-6.75 1.219-2.469.125-5.172.14-8.11.046 0-1.437-.25-2.812-.75-4.125l.094-.515c2.375.437 4.594.672 6.656.703 2.094 0 3.97-.172 5.625-.516 1.688-.344 3.157-.937 4.407-1.781 1.25-.844 2.03-2.031 2.343-3.563.344-1.53.235-2.828-.328-3.89-.562-1.094-1.265-1.938-2.109-2.531-.813-.594-1.89-.907-3.234-.938-1.344-.062-2.86.078-4.547.422-1.688.344-3.344 1-4.969 1.969a21.3 21.3 0 0 0-4.36 3.422l-4.265-1.735c1.281-4.406 2.062-7.531 2.344-9.375.281-1.843.562-3.562.843-5.156-3.468.219-6.265.36-8.39.422-.188-1.688-.453-3.094-.797-4.219l.281-.281c3.156.281 6.328.39 9.516.328.187-1.187.422-2.719.703-4.594.312-1.906.36-3.172.14-3.797.032-.687.329-.89.891-.609l4.453.656c.375.219.391.5.047.844l-.75.797a711.91 711.91 0 0 0-1.172 6.469c3.75-.375 8.157-1.22 13.22-2.532l1.124 4.125" id="path2137"/>
        <path d="m477.027 144.888 11.507.295" class="stroke" id="path37465"/>
        <text x="481.848" y="141.439" class="number">1</text>
        <path d="m501.586 133.649-2.523 10.999" class="stroke" id="path37471"/>
        <text x="504.106" y="138.748" class="number">2</text>
        <path d="M506.768 156.267s10.432.835 13.353 5.633c2.92 4.799-1.044 10.667-2.921 14.083" class="stroke" id="path37481"/>
    </g>
    <text x="542.404" y="202.671" id="cellSI" class="label cell">SHI</text>
    <g id="gSI">
        <path d="M549.476 142.462c.031-.5.25-.75.656-.75l5.297.563c.375.187.406.453.094.797l-.703.89c-.407 5.75-.672 10.641-.797 14.672-.094 4-.094 7.047 0 9.14.094 2.095.453 3.626 1.078 4.595.625.968 1.266 1.656 1.922 2.062.656.406 1.578.719 2.765.938 1.22.218 2.672.156 4.36-.188 1.687-.375 3.469-1.281 5.344-2.719 1.875-1.468 3.718-3.906 5.53-7.312 1.72 1.375 3.266 2.36 4.641 2.953-1.78 2.562-3.656 4.766-5.625 6.61-1.937 1.843-4.296 3.218-7.078 4.124-2.75.907-5.328 1.172-7.734.797-2.375-.375-4.188-1.015-5.438-1.922-1.25-.937-2.25-2.218-3-3.843-.75-1.657-1.187-3.563-1.312-5.72-.125-2.187-.11-5.405.047-9.655.156-4.25.265-7.875.328-10.875.094-3-.031-4.72-.375-5.157" id="path2153"/>
        <path d="M545.908 142.74c-.608 5.945-.78 16.79-.763 22.943" class="stroke" id="path38368"/>
        <text x="538.665" y="149.585" class="number">1</text>
    </g>
    <text x="614.404" y="202.671" id="cellKI" class="label cell">KI</text>
    <g id="gKI">
        <path d="M625.898 141.118a136.257 136.257 0 0 0 1.5 5.344 58.447 58.447 0 0 0 8.578-2.203l1.687 3.75c-2.781.812-5.75 1.484-8.906 2.015.156.407.453 1.016.89 1.829.438.812 1.048 1.906 1.829 3.28 3.812-.593 7.406-1.53 10.781-2.812l1.64 3.938c-3.156.906-6.671 1.64-10.546 2.203 1.312 2.062 3.281 4.61 5.906 7.64l-3.703 3.047c-1.938-.78-3.438-1.296-4.5-1.546-1.031-.282-2.375-.516-4.031-.704-1.657-.187-3.157-.218-4.5-.093-1.344.125-2.563.406-3.657.843-1.062.407-1.859.954-2.39 1.641-.531.656-.781 1.5-.75 2.531.062 1 .453 1.907 1.172 2.719.718.813 1.875 1.39 3.468 1.734 1.625.313 3.829.454 6.61.422a99.348 99.348 0 0 0 8.531-.562l.094.515c-.406.72-.75 2.016-1.031 3.891-3.313.188-6.75.156-10.313-.094-3.562-.218-6.078-.703-7.547-1.453-1.437-.75-2.562-1.687-3.375-2.812-.781-1.157-1.265-2.516-1.453-4.078-.156-1.594.172-2.97.984-4.125.813-1.157 1.829-2.032 3.047-2.625 1.22-.625 2.61-1.079 4.172-1.36a23.01 23.01 0 0 1 4.922-.328c1.75.063 4.11.36 7.078.89a62.29 62.29 0 0 1-3.234-5.484c-5.063.563-11.25 1-18.563 1.313-.062-1.406-.25-2.703-.562-3.89l.14-.329c6.657.188 12.422.031 17.297-.469-.53-1.093-1-2.047-1.406-2.86a95.474 95.474 0 0 1-1.031-2.202c-3.406.406-7.438.719-12.094.937-.031-1.125-.25-2.437-.656-3.937l.281-.235c4.281.063 7.984-.062 11.11-.375-.157-.437-.485-1.421-.985-2.953-.469-1.562-.875-2.515-1.219-2.86-.25-.343-.14-.593.328-.75l4.172-.75c.438.032.547.267.328.704l-.093.703" id="path2167"/>
        <path d="M606.772 144.755c.738 0 12.835-1.18 12.835-1.18" class="stroke" id="path38378"/>
        <path d="M606.14 154.564c.737 0 17.737-1.284 17.737-1.284" class="stroke" id="path39265"/>
        <path d="m627.13 134.576 4.721 8.261" class="stroke" id="path39267"/>
        <path d="M610.165 165.409s-4.389 1.66-4.278 4.868c.11 3.209 3.227 6.08 4.72 7.966" class="stroke" id="path40154"/>
        <text x="601.422" y="145.964" class="number">1</text>
        <text x="599.545" y="156.813" class="number">2</text>
        <text x="632.091" y="138.245" class="number">3</text>
    </g>
    <text x="686.404" y="202.671" id="cellI" class="label cell">I</text>
    <g id="gI">
        <path d="M672.267 145.11c-.531.032-.781.251-.75.657.25.438.188 2.281-.187 5.5a61.49 61.49 0 0 0-.375 9.563c.156 3.156.562 6.062 1.187 8.718.657 2.657 1.594 4.72 2.813 6.188 1.25 1.437 2.593 2.062 4.031 1.875 1.438-.219 2.594-1.219 3.5-2.969.906-1.75 2.031-4.156 3.375-7.219a172.756 172.756 0 0 1-3.937-3.03h-.375c-.75 3.374-1.344 5.437-1.782 6.187-.437.718-.969 1-1.593.875-.625-.125-1.188-.875-1.688-2.25s-.875-4-1.156-7.907c-.281-3.937 0-8.593.875-13.937l.562-.656c.375-.375.344-.625-.093-.782l-4.407-.812zm28.282 2.595-3.625 2.75c2.656 2.656 4.562 5.375 5.718 8.125 1.188 2.718 2.156 6.437 2.907 11.156 1.687-.719 3.343-1.188 4.937-1.406l.219-.344c-.938-4.25-2.188-7.969-3.75-11.188-1.532-3.218-3.657-6.25-6.406-9.093z" id="path2189"/>
        <path d="M666.102 143.646c-.916 4.151.506 12.931 1.058 17.195" class="stroke" id="path41061"/>
        <text x="659.536" y="149.652" class="number">1</text>
        <path d="m705.466 146.673 7.967 13.277" class="stroke" id="path41952"/>
        <text x="709.536" y="149.652" class="number">2</text>
    </g>
    <text x="161.483" y="282.671" id="cellRU" class="label cell">RU</text>
    <g id="gRU">
        <path d="M183.293 219.33c-.109 0-.203.062-.312.156l-.25.406c-3.75.5-7.094.875-10.063 1.094-2.968.219-5.437.281-7.375.219l-.218.562c.5 1.22.812 2.563.968 4 4.688-.75 9.375-1.437 14.063-2.062-6.031 7.531-12.75 14.75-20.188 21.656v.563c1.157.5 2.282 1.562 3.375 3.187a465.65 465.65 0 0 1 4.782-5.5c1.968-1.562 3.875-2.875 5.718-3.937 1.875-1.094 3.938-1.782 6.188-2.063 2.25-.281 4.281 0 6.125.844 1.844.812 3.125 2.031 3.812 3.625.688 1.562.907 3.031.657 4.406-.22 1.375-.813 2.594-1.782 3.656-.937 1.063-1.968 1.907-3.093 2.532-1.032-1.907-2.125-3.344-3.25-4.313-1.094-.969-2.563-1.781-4.407-2.406-1.843-.625-3.5-.625-4.968-.031-1.438.562-2.594 1.687-3.47 3.406-.843 1.719-.874 3.406-.093 5.031.781 1.625 2.188 2.719 4.219 3.313 2.031.593 4.406.718 7.094.343 2.687-.343 5.125-1.156 7.343-2.406 2.25-1.281 3.875-2.687 4.875-4.25 1.032-1.562 1.688-3.219 1.938-4.969.25-1.75-.094-3.687-1.031-5.812-.938-2.156-2.875-3.844-5.813-5.031-2.906-1.219-5.469-1.625-7.687-1.25-2.188.375-4.063.906-5.594 1.593 2.906-3.25 6.656-7.437 11.219-12.562l.968-.375c.657-.375.72-.781.157-1.219a132.635 132.635 0 0 0-3.563-2.25c-.11-.094-.234-.156-.344-.156zm-7.687 29.75c.185.009.36.023.562.062 1.657.313 2.782.875 3.375 1.657.625.75 1.282 1.906 1.938 3.468-.656.125-1.594.25-2.781.375-1.188.094-2.532-.062-4.063-.468-1.531-.438-2.062-1.469-1.594-3.063.41-1.422 1.267-2.093 2.563-2.031z" id="path2035"/>
        <path d="m165.977 217.913 17.112-1.18" class="stroke" id="path42847"/>
        <text x="165.551" y="215.872" class="number">1</text>
        <path d="M159.482 241.674s-5.164 9.858-2.713 11.683c2.452 1.826 7.914-1.958 11.043-3.791" class="stroke" id="path43738"/>
        <path d="M191.733 233.67c3.15 2.184 7.394 4.067 8.428 9.05 1.033 4.983-2.768 9.276-4.247 11.499" class="stroke" id="path45530"/>
    </g>
    <text x="225.814" y="282.671" id="cellYU" class="label cell">YU</text>
    <g id="gYU">
        <path d="M244.254 218.76c-.257.07-.367.327-.343.75.375.374.625 1.468.78 3.312.157 1.843.25 3.312.282 4.375-2.625.437-5.406 1.5-8.344 3.187-2.937 1.688-5.906 4.906-8.906 9.656 0-1.656.063-3.562.188-5.687.125-2.156.437-4.875.906-8.188l.656-.812c.375-.406.313-.688-.156-.844l-4.25-.687c-.563-.282-.875-.094-.906.593.218.625.218 1.875-.032 3.75-.25 1.844-.437 4.032-.53 6.532-.063 2.5-.063 5.125-.032 7.875s.656 6.187 1.875 10.312l4.594-2.25a66.025 66.025 0 0 1-1.282-3.625c.22-1.656 1.407-3.969 3.563-6.937 2.156-2.97 4.375-5.125 6.625-6.47 2.281-1.343 4.344-2.218 6.187-2.655 0 1.156-.03 3.062-.062 5.75-.031 2.687-.625 5.968-1.781 9.843-1.438-.593-2.875-2.125-4.313-4.625l-3.094 3.125c1.688 2.594 3.688 4.375 5.97 5.344-1.22 2.5-2.907 4.688-5.063 6.563v.468c1.218.5 2.468 1.375 3.75 2.594 2.375-2.719 4.187-5.594 5.468-8.594 1.438.188 3.313.157 5.625-.093 2.313-.282 4.5-1.282 6.563-3 2.062-1.75 3.437-3.72 4.125-5.938.719-2.219.844-4.469.344-6.75-.47-2.281-1.844-4.312-4.125-6.062-2.282-1.782-5.407-2.688-9.375-2.72a112.564 112.564 0 0 0-.375-6.28l.562-.938c.25-.375.156-.625-.281-.75l-4.5-.125a.836.836 0 0 0-.313 0zm5 11.75c2.375.062 4.344.624 5.938 1.655 1.594 1.032 2.562 2.344 2.906 3.97.375 1.624.344 3.343-.094 5.124-.437 1.75-1.562 3.25-3.375 4.5-1.812 1.219-3.343 1.813-4.625 1.813-1.28-.032-2.156-.063-2.625-.125 1.125-4.5 1.72-8.125 1.782-10.844.093-2.719.125-4.75.093-6.094z" id="path2051"/>
        <path d="m220.993 223.239-.885 15.932" class="stroke" id="path46421"/>
        <text x="213.026" y="229.225" class="number">1</text>
        <path d="M257.661 223.864s6.155 2.139 8.345 7.51c2.19 5.373.903 10.337.418 13.98" class="stroke" id="path47463"/>
        <path d="m252.342 212.617-.664 10.77" class="stroke" id="path48350"/>
        <text x="245.51" y="216.061" class="number">2</text>
    </g>
    <text x="287.814" y="282.671" id="cellMU" class="label cell">MU</text>
    <g id="gMU">
        <path d="M297.496 219.871c-.438 0-.625.25-.532.719.25.469.375 2.781.344 6.969-2.875.062-6.156-.032-9.844-.282l-.156.438a24.77 24.77 0 0 1 .563 3.969c3.062-.125 6.187-.25 9.375-.407a155.273 155.273 0 0 1-.188 5.813c-.219-.063-.687-.156-1.437-.25s-1.72.062-2.875.469c-1.125.406-2.125 1.062-3.032 1.968-.906.907-1.531 2.157-1.875 3.719-.312 1.531-.375 3-.156 4.406.219 1.375.75 2.438 1.563 3.188a5.332 5.332 0 0 0 2.812 1.312c1.063.125 2.063 0 3.031-.343-.312 1.468-.156 2.875.47 4.218.624 1.344 1.812 2.469 3.53 3.344 1.719.875 4.094 1.281 7.157 1.219 3.093-.031 5.593-.188 7.468-.438 1.907-.25 3.625-.781 5.157-1.625 1.562-.812 2.562-1.75 3.03-2.812.47-1.063.5-2.469.063-4.219-.406-1.781-.906-4.375-1.468-7.75l-4.688.906c.906 2.938 1.5 5.032 1.781 6.313.313 1.281.375 2.187.188 2.719-.156.53-.656 1.03-1.531 1.5-.844.468-2.094.812-3.75 1.03-1.657.188-3.72.282-6.157.282s-4.062-.156-4.875-.5c-.812-.344-1.375-.937-1.718-1.75-.344-.812-.438-1.844-.25-3.094.218-1.281.625-3.062 1.187-5.343.594-2.282.656-4 .188-5.188.187-2.062.343-5.187.468-9.344 4-.25 7.782-.656 11.375-1.25l-.687-4.093c-4 .843-7.531 1.406-10.594 1.656.031-1.719.063-3.594.094-5.594l.5-.781c.312-.375.25-.625-.188-.719l-4.343-.375zm20.75 10.375-2.47 3.469c3.595 1.937 6.75 4.562 9.47 7.875 1.218-1.594 2.312-2.844 3.312-3.719v-.281c-2.719-2.281-6.156-4.719-10.312-7.344zm-23.25 9.781c.166-.006.359-.015.53 0 .72.063 1.157.375 1.345.938-.22 3.406-.75 5.5-1.625 6.281-.875.781-1.72 1.094-2.532.906-.812-.187-1.281-.656-1.406-1.375-.125-.718-.125-1.625 0-2.718.125-1.094.375-1.907.781-2.47a3.518 3.518 0 0 1 1.5-1.218c.446-.21.909-.326 1.407-.344z" id="path2067"/>
        <path d="M283.544 223.681h9.884" class="stroke" id="path51896"/>
        <text x="281.353" y="221.192" class="number">1</text>
        <path d="m305.75 212.978-.73 10.596" class="stroke" id="path52787"/>
        <text x="308.763" y="218.168" class="number">2</text>
        <path d="M289.961 254.44s-5.182-1.77-6.639-4.868c-1.456-3.098 1.531-7.21 2.656-9.368" class="stroke" id="path53678"/>
        <path d="m325.662 256.432-.664-9.81" class="stroke" id="path54565"/>
        <path d="m320.794 227.59 9.294 6.713" class="stroke" id="path55452"/>
        <text x="322.967" y="227.388" class="number">3</text>
    </g>
    <text x="353.814" y="282.671" id="cellHU" class="label cell">FU</text>
    <g id="gHU">
        <path d="m363.192 220.082-2.156 3.75c4.344 2.313 9.219 4.188 14.625 5.657.531-1.688 1.094-3.125 1.688-4.344-5.407-1.031-10.125-2.719-14.157-5.063zm.032 11.25c-.407.032-.563.22-.47.563.126.438.063 1.313-.187 2.656a16.65 16.65 0 0 0-.187 3.938c.094 1.312 1.062 2.562 2.875 3.718a389.417 389.417 0 0 1 5.187 3.375c1.657 1.094 2.72 2.438 3.188 4.032.5 1.562.406 2.843-.281 3.843-.688 1-1.688 1.594-3 1.782-1.282.156-2.5 0-3.688-.469-1.156-.5-2.312-1.531-3.437-3.094a23.858 23.858 0 0 1-3.407 2.75l-.062.375c1.437 1.438 2.875 2.563 4.281 3.344 1.406.812 3.063 1.219 4.969 1.25 1.906.062 3.594-.281 5.094-1.031 1.53-.75 2.718-1.844 3.562-3.313.875-1.469 1.094-3.375.625-5.719-.437-2.374-1.687-4.28-3.719-5.718-2.03-1.469-3.812-2.625-5.375-3.438-1.562-.843-2.375-1.781-2.406-2.812 0-1.031.156-2.313.438-3.844l.593-.688c.375-.374.344-.656-.093-.843l-4.5-.657zm17.625 8.563-2.72 3.281c3.532 2.688 6.813 6.344 9.813 10.969 1.844-1.75 3.125-2.844 3.875-3.313l-.03-.437c-3.313-3.719-6.97-7.219-10.938-10.5zm-21.375 3.156a494.72 494.72 0 0 0-11.188 10.156c1.594 1.282 2.719 2.438 3.406 3.438 3.907-4.406 7.594-7.937 11.063-10.563l-3.281-3.03z" id="path2091"/>
        <path d="m363.06 216.747 14.015 4.574" class="stroke" id="path56351"/>
        <text x="365.859" y="216.029" class="number">1</text>
        <path d="M370.953 230.246s-1.734 3.983-.295 5.901c1.438 1.918 3.632 3.098 5.68 4.647" class="stroke" id="path57242"/>
        <text x="374.416" y="236.807" class="number">2</text>
        <path d="m355.094 242.343-8.778 7.229" class="stroke" id="path58135"/>
        <text x="348.702" y="241.159" class="number">3</text>
        <path d="m384.304 237.401 10.843 10.253" class="stroke" id="path59028"/>
        <text x="387.693" y="239.241" class="number">4</text>
    </g>
    <text x="415.814" y="282.671" id="cellNU" class="label cell">NU</text>
    <g id="gNU">
        <path d="M433.91 222.952c-.352 0-.555.18-.625.532.343.562.218 2.531-.375 5.906-.719.125-1.938.344-3.625.656-1.657.281-3.188.906-4.625 1.844-1.438.906-2.594 1.719-3.469 2.437a80.43 80.43 0 0 1-2.031-5.875l.281-.937c.156-.437-.031-.625-.594-.594l-4.187.938c-.469.062-.563.343-.282.843.407.313.907 1.344 1.5 3.094.625 1.719 1.407 3.563 2.313 5.563-1.375 1.656-2.5 3.687-3.375 6.062-.844 2.344-1.25 4.531-1.188 6.563.063 2.031.407 3.625 1.032 4.781.656 1.125 1.593 2.031 2.781 2.719 1.187.656 2.312.968 3.406.968 1.125-.03 2.313-.437 3.531-1.218 1.25-.813 2.407-1.907 3.47-3.313.405.656.812 1.281 1.25 1.906 1.187-1.406 2.374-2.562 3.562-3.468v-.282a32.633 32.633 0 0 1-2.157-2.375c1.532-2.75 2.72-5.406 3.563-7.968.844-2.563 1.656-5.563 2.437-9 .875.031 2.094.125 3.625.312 1.563.188 3.063.906 4.532 2.156 1.5 1.22 2.562 2.657 3.187 4.313.656 1.656.938 3.281.813 4.875-.125 1.562-.563 3.156-1.282 4.781-.406-.219-1.28-.625-2.656-1.25-1.344-.656-2.781-1-4.312-1.031-1.5-.031-2.782.437-3.844 1.437-1.031 1-1.719 2.407-2.063 4.188-.312 1.781.188 3.312 1.5 4.625 1.313 1.281 3 1.937 5.063 1.969 2.062.031 3.719-.5 4.969-1.625 1.25-1.125 2.125-2 2.656-2.594a83.855 83.855 0 0 1 3.812 3.531 32.12 32.12 0 0 1 3-4.031 94.835 94.835 0 0 0-4.375-3c1.125-2.219 1.75-4.469 1.875-6.719.157-2.281-.125-4.406-.875-6.406-.718-2-2.187-3.875-4.375-5.594-2.156-1.719-4.218-2.687-6.218-2.937-2-.282-3.407-.469-4.219-.532.25-1.25.5-2.562.781-3.937l.719-.75c.312-.312.281-.562-.094-.781l-4.406-.719a1.662 1.662 0 0 0-.406-.063zm-1.75 10.063a86.759 86.759 0 0 1-1.875 7.062c-.688 2.282-1.5 4.375-2.438 6.282-1.781-2.375-3.469-5.157-5.062-8.375a18.737 18.737 0 0 1 4.343-3.188 17.013 17.013 0 0 1 5.032-1.781zm-12.063 8.437c1.5 2.97 2.688 5.094 3.531 6.375.875 1.25 1.47 2.094 1.813 2.563-1.313 1.906-2.406 3.031-3.313 3.344-.906.312-1.656.343-2.218.125-.563-.25-1.032-.719-1.438-1.407-.375-.718-.562-1.78-.562-3.218 0-1.469.25-2.938.75-4.375.531-1.469 1-2.594 1.437-3.407zm20.531 9c1.344 0 3 .625 4.938 1.875-.5.657-1.188 1.344-2.063 2.094-.843.75-2 1.063-3.437.906-1.406-.156-2-1.03-1.781-2.593.25-1.563 1.03-2.313 2.343-2.282z" id="path2115"/>
        <path d="m418.99 221.194 4.94 8.089" class="stroke" id="path59919"/>
        <text x="414.519" y="219.985" class="number">1</text>
        <path d="m443.135 216.562-2.295 9.597" class="stroke" id="path60814"/>
        <text x="444.17" y="218.176" class="number">2</text>
        <path d="M419.27 261.191s-7.226-.883-8.45-4.798c-1.084-3.469-.087-7.803.277-10.698" class="stroke" id="path61707"/>
        <path d="M453.88 234.817s2.999 2.739 3.338 5.738c.339 2.999-1.413 5.948-2.35 8.324" class="stroke" id="path62594"/>
    </g>
    <text x="475.814" y="282.671" id="cellTU" class="label cell">TSU</text>
    <g id="gTU">
        <path d="M475.055 228.97c7.781-1.594 14-2.72 18.656-3.375 4.688-.688 8.5-.735 11.438-.141 2.937.562 5.187 1.656 6.75 3.281 1.562 1.594 2.594 3.531 3.094 5.813.5 2.25.359 4.547-.422 6.89-.782 2.344-2.078 4.39-3.89 6.14-1.782 1.72-4.157 3.032-7.126 3.938-2.969.875-7.797 1.516-14.484 1.922-.25-1.812-.61-3.437-1.078-4.875l.234-.328c6.156.156 10.453-.094 12.89-.75 2.47-.656 4.407-1.594 5.813-2.812 1.438-1.25 2.453-2.75 3.047-4.5.594-1.782.719-3.375.375-4.782a8.686 8.686 0 0 0-1.969-3.796c-.937-1.125-2.453-1.922-4.547-2.391-2.093-.469-5.078-.406-8.953.187-3.844.594-9.922 2.141-18.234 4.641-.406-1.875-.985-3.39-1.734-4.547l.14-.515" id="path2135"/>
        <path d="m475.682 225.95 16.482-2.92" class="stroke" id="path63485"/>
        <text x="474.346" y="222.611" class="number">1</text>
    </g>
    <text x="545.814" y="282.671" id="cellSU" class="label cell">SU</text>
    <g id="gSU">
        <path d="M563.805 219.264c-.563.094-.813.375-.75.812.312.47.5 1.063.593 1.782.125.687.282 2.468.47 5.343-6.751.188-13.97.126-21.688-.156v.469c.312 1.094.5 2.437.593 4 7.719-.313 14.782-.563 21.188-.75a205.26 205.26 0 0 1-.188 5.469c-1.218-.688-2.687-1-4.437-.969-1.719.031-3.156.437-4.281 1.25-1.094.812-1.907 1.875-2.438 3.187-.5 1.313-.594 2.75-.281 4.282.344 1.5 1.094 2.843 2.219 4.062 1.125 1.188 2.28 1.906 3.468 2.156 1.188.22 2.25.188 3.22-.093.968-.282 1.718-.563 2.25-.875-.126.625-.407 1.468-.876 2.531-.437 1.062-1.312 2.187-2.594 3.375-1.281 1.187-3.25 2.312-5.937 3.375v.312a25.052 25.052 0 0 1 2.844 4.125c2.843-1.875 4.906-3.437 6.156-4.687 1.25-1.219 2.281-2.75 3.094-4.594.843-1.844 1.375-3.875 1.593-6.094.219-2.218.282-3.78.188-4.718-.063-.969-.219-1.782-.469-2.407a88.4 88.4 0 0 0 .375-5.062c.094-1.531.125-3.094.125-4.719 5.125-.156 10.219-.344 15.25-.531l-.656-4.031c-4.656.406-9.531.719-14.594.937-.031-1.75-.062-3.719-.125-5.906l.375-.938c.344-.437.281-.718-.187-.843l-4.5-.094zm-4.125 19.281c.43.024.875.125 1.343.281.969.313 1.625.688 1.938 1.157.312.437.531.937.656 1.5-.25 2.031-.625 3.375-1.094 4.031-.468.625-1.093 1-1.906 1.125-.781.125-1.625-.031-2.5-.469-.875-.437-1.5-1.25-1.875-2.469-.344-1.218-.25-2.312.281-3.25.532-.968 1.188-1.562 1.938-1.78.39-.11.789-.15 1.219-.126z" id="path2151"/>
        <path d="M539.911 224.098c.835 0 17.108.209 17.108.209" class="stroke" id="path64376"/>
        <text x="542.503" y="221.349" class="number">1</text>
        <path d="M554.091 252.081s-5.189-2.355-5.74-6.035c-.553-3.68 2.207-6.661 3.532-8.686" class="stroke" id="path2226"/>
        <path d="m571.764 213.467.434 10.94" class="stroke" id="path4062"/>
        <text x="574.629" y="219.475" class="number">2</text>
    </g>
    <text x="609.814" y="282.671" id="cellKU" class="label cell">KU</text>
    <g id="gKU">
        <path d="M629.112 220.68c.031-.437.312-.625.844-.562l4.312 2.016c.5.25.469.515-.094.796l-.843.375c-3.375 4.625-6.782 8.438-10.22 11.438-3.437 3-5.265 4.734-5.484 5.203-.187.438-.203.86-.046 1.266.156.406 1.921 1.984 5.296 4.734 3.407 2.75 7.72 6.39 12.938 10.922v.375c-1.063.937-2.313 2.36-3.75 4.266-5-6-9.438-10.657-13.313-13.97-3.843-3.312-5.828-5.265-5.953-5.859a5.156 5.156 0 0 1 .047-1.828c.125-.656 2-2.625 5.625-5.906 3.625-3.312 6.328-6.219 8.11-8.719 1.812-2.5 2.656-4.015 2.53-4.547" id="path2165"/>
        <path d="m627.392 217.847-12.954 13.838" class="stroke" id="path4991"/>
        <text x="617.916" y="220.308" class="number">1</text>
    </g>
    <text x="680.047" y="282.671" id="cellU" class="label cell">U</text>
    <g id="gU">
        <path d="m682.723 219.83-1.312 4.125c5.062 1.438 10.812 2.563 17.218 3.344.25-1.625.5-2.938.782-3.938l-.188-.375a66.132 66.132 0 0 1-16.5-3.156zm8 12.344a25.381 25.381 0 0 0-4.156.5c-2.688.531-6.282 1.437-10.813 2.719l-.156.468a19.558 19.558 0 0 1 2.125 4.375c4.031-2 7.156-3.25 9.406-3.75 2.281-.5 4.5-.593 6.625-.28 2.156.312 3.625 1.03 4.438 2.187.812 1.156 1.312 2.406 1.469 3.718.187 1.313-.063 3.032-.72 5.157-.624 2.125-1.624 3.875-3.03 5.28-1.376 1.407-3.22 2.595-5.532 3.563-2.281.97-4.594 1.625-6.906 1.938v.469c.875 1.156 1.562 2.562 2.063 4.25 3.312-1.063 6-2.125 8.062-3.22 2.094-1.062 4.125-2.655 6.063-4.78 1.937-2.125 3.218-4.47 3.843-7 .656-2.563.844-4.782.594-6.657-.25-1.906-1.094-3.75-2.562-5.53-1.438-1.813-3.626-2.876-6.532-3.22a27.333 27.333 0 0 0-4.281-.187z" id="path2185"/>
        <path d="m682.634 216.886 17.071 3.54" class="stroke" id="path5912"/>
        <text x="683.761" y="215.103" class="number">1</text>
        <path d="m670.494 232.988 14.573-3.956" class="stroke" id="path6835"/>
        <text x="670.375" y="229.383" class="number">2</text>
    </g>
    <text x="94.317" y="362.671" id="cellWE" class="label cell">WE</text>
    <g id="gWE">
        <path d="M114.686 299.908a.448.448 0 0 0-.312.125l-.625.718c-3.594.5-6.188.782-7.782.875-1.562.094-3.25.125-5.062.063l-.125.375c.687 1.312 1.062 2.469 1.125 3.469 4.469-.75 7.875-1.313 10.219-1.688-3.657 3.938-9 8.531-16.032 13.781v.375c1.22.938 2.22 1.97 3.032 3.125 1.218-1.343 2.906-2.968 5.03-4.875l-.624.657c1.25-1 2.75-1.875 4.5-2.625 1.75-.782 3.531-1.22 5.312-1.313 1.813-.125 3.313.031 4.532.469 1.25.437 2.156 1.094 2.687 1.969.531.843.719 1.906.563 3.156-.157 1.219-.625 2.219-1.375 3-.72.781-1.5 1.375-2.344 1.781-.813.375-1.469.625-1.969.75.281-.531.406-1.187.375-1.937 0-.782-.406-1.625-1.219-2.532-.812-.906-1.968-1.437-3.468-1.625-1.5-.218-2.782-.125-3.875.313-1.094.437-1.97 1.281-2.594 2.5-.594 1.187-.625 2.312-.125 3.406.5 1.094 1.375 1.938 2.625 2.5-1.375.938-3.375 2.281-5.969 4.031-2.594 1.75-5.969 3.688-10.156 5.844v.375a26.462 26.462 0 0 1 2.562 3.563 702.047 702.047 0 0 1 9.813-6.938c3.469-1.125 5.469-1.25 6-.406.562.844.906 1.687 1.031 2.562.125.875.125 1.97 0 3.282h4.125c.125-1.25.75-2.375 1.906-3.375 1.188-1.032 2.313-1.813 3.375-2.375 1.094-.594 2.313-1 3.625-1.188 1.313-.219 2.5-.094 3.594.375 1.094.469 1.781 1.063 2.031 1.781.25.688.25 1.125.032 1.282-.22.156-.813.375-1.782.656-.968.25-2.406.406-4.343.5v.469c.562.843 1 2 1.312 3.468 3.563-.875 5.875-1.5 6.969-1.875 1.094-.343 1.875-.843 2.344-1.53.468-.688.406-1.782-.22-3.282-.624-1.531-1.968-2.844-4-3.906-2.03-1.094-4.093-1.47-6.187-1.125-2.093.343-3.875.906-5.375 1.656a17.572 17.572 0 0 0-4.218 2.844c-.72-2.375-2.375-3.5-4.97-3.407a57.35 57.35 0 0 0 3.282-2.406c.625 0 1.656-.031 3.094-.125 1.437-.125 3.031-.687 4.812-1.656 1.782-.969 3.125-2.063 4-3.313s1.344-2.562 1.438-3.937c.094-1.375-.219-2.813-.938-4.281-.718-1.47-2.218-2.594-4.53-3.375-2.282-.813-4.282-1.094-5.97-.844-1.656.25-2.937.562-3.875.906 2.063-1.969 4.532-4.344 7.407-7.094l1.156-.375c.844-.312.906-.718.156-1.218a123.612 123.612 0 0 1-3.656-2.25.52.52 0 0 0-.344-.125zm-5.281 20.937c1.031-.125 1.781.156 2.281.813.531.656.125 1.53-1.219 2.625-.531-.063-1.125-.157-1.78-.25-.626-.094-.907-.594-.876-1.532.063-.968.594-1.53 1.594-1.656z" class="old" id="path2255"/>
        <path d="m99.513 298.98 14.72-1.472" class="stroke" id="path7764"/>
        <text x="98.876" y="296.984" class="number">1</text>
        <path d="M120.538 308.799s4.945.677 6.766 3.643c1.822 2.967.685 6.904.447 9.107" class="stroke" id="path8685"/>
        <path d="M91.416 334.162s-6.646 3.746-4.122 6.772c2.524 3.026 11.837.243 15.574-.718" class="stroke" id="path9602"/>
        <path d="M128.954 327.317c4.95-.129 7.563 4.25 9.495 6.551" class="stroke" id="path10519"/>
    </g>
    <text x="162.317" y="362.671" id="cellRE" class="label cell">RE</text>
    <g id="gRE">
        <path d="M199.559 328.256c-1.219 2.312-2.36 4.171-3.422 5.578-1.031 1.406-2.406 2.39-4.125 2.953-1.688.562-3.156.36-4.406-.61-1.25-.968-1.86-2.421-1.828-4.359l.28-8.719c.157-3.875.266-6.625.329-8.25.094-1.625-.156-2.625-.75-3-.563-.406-1.375-.546-2.438-.422-1.062.094-2.734.797-5.015 2.11-2.281 1.281-5.172 3.75-8.672 7.406.031 2.063.062 4.563.094 7.5.062 2.938.343 6.469.843 10.594l-.14.422c-1.406.093-3.016.36-4.828.797-.094-4.22-.157-9-.188-14.344-1.906 2.437-3.969 5.25-6.187 8.437l-.375-.047c-.875-1.156-2.016-2.312-3.422-3.468 3.156-3.469 5.89-6.453 8.203-8.953a50.9 50.9 0 0 0 1.781-3.75v-4.454a65.2 65.2 0 0 0-6.844 2.297 17.719 17.719 0 0 0-1.687-4.03l.094-.423c3.187-.406 6.015-.86 8.484-1.36.031-2.03.094-4.093.188-6.187.093-2.093.015-3.328-.235-3.703-.156-.562 0-.812.469-.75l4.64.422c.438.156.438.406 0 .75l-.515.703c-.156 2.5-.266 4.907-.328 7.219 1.062.375 2.187.906 3.375 1.594.437.344.344.703-.281 1.078l-1.454.844c-.53 1.312-1 2.437-1.406 3.375a44.456 44.456 0 0 1 7.125-5.391c2.594-1.562 4.563-2.437 5.906-2.625 1.375-.187 2.97.11 4.782.89 1.812.782 2.75 2.282 2.812 4.5.094 2.188.047 5.235-.14 9.141-.157 3.875-.235 6.578-.235 8.11 0 1.5.422 2.218 1.266 2.156.844-.063 1.625-.672 2.344-1.828.718-1.156 1.343-2.61 1.875-4.36l4.03 2.157" id="path2031"/>
        <path d="m174.146 296.412 1.04 10.201" class="stroke" id="path11440"/>
        <text x="175.368" y="297.712" class="number">1</text>
        <path d="m151.174 308.579 9.936-1.104" class="stroke" id="path12361"/>
        <text x="149.457" y="305.207" class="number">2</text>
        <path d="M186.954 304.426s4.306.516 6.036 3.533c1.73 3.018.957 7.655.883 9.863" class="stroke" id="path13282"/>
        <path d="M153.226 328.606s-3.844 8.03-1.36 9.924c3.508 2.676 7.71-1.001 10.973-2.965" class="stroke" id="path14199"/>
    </g>
    <text x="289.434" y="362.671" id="cellME" class="label cell">ME</text>
    <g id="gME">
        <path d="M310.168 300.583c-.351 0-.554.18-.625.532.344.562.094 2.562-.718 5.968-1.313.125-2.907.375-4.782.75-1.843.344-3.437.875-4.78 1.594-1.313.719-2.157 1.219-2.532 1.5a93.483 93.483 0 0 1-1.313-4.687l.25-.938c.188-.531 0-.75-.562-.656l-4.031.562c-.469.063-.563.344-.282.844.344.313.75 1.438 1.25 3.375a87.176 87.176 0 0 0 1.282 4.313 51.502 51.502 0 0 0-1.844 2.187c-.875 1.094-1.719 2.719-2.563 4.844-.843 2.094-1.25 4.344-1.218 6.75.031 2.406.343 4.187.937 5.344.625 1.125 1.563 2.031 2.813 2.75 1.25.687 2.437.968 3.562.812 1.156-.187 2.313-.625 3.5-1.281 1.219-.688 2.5-1.906 3.844-3.688l1.406 2.063c1.688-1.625 2.938-2.719 3.75-3.25v-.469a34.718 34.718 0 0 1-2.281-2.531c1.5-2.469 2.781-5 3.844-7.625a93.03 93.03 0 0 0 3-8.5c.437.062 1.25.25 2.468.531 1.22.25 2.532.938 3.938 2.063 1.437 1.125 2.5 2.625 3.156 4.5.688 1.875 1 3.625.938 5.28-.063 1.626-.532 3.345-1.375 5.126-.844 1.781-2.282 3.187-4.344 4.25-2.063 1.062-4.75 1.719-8.063 1.937v.563c.782 1.437 1.282 2.75 1.532 3.937 4.468-.78 7.843-2.03 10.125-3.718 2.312-1.719 4-3.688 5.062-5.938 1.063-2.281 1.625-4.437 1.656-6.469.063-2.062-.28-4.187-1.03-6.343-.72-2.188-2.188-4.157-4.407-5.907-2.188-1.75-4.031-2.75-5.531-3.03-1.47-.313-2.47-.532-2.969-.626.375-1.344.75-2.75 1.125-4.219l.75-.78c.437-.407.344-.657-.281-.75l-4.25-.907a1.662 1.662 0 0 0-.407-.063zm-2.375 10.375a70.83 70.83 0 0 1-2.375 7c-.875 2.22-1.78 4.157-2.718 5.844-1.375-2.187-2.407-3.969-3.094-5.375a53.052 53.052 0 0 1-1.594-3.625c.813-.625 1.969-1.344 3.5-2.187 1.531-.844 3.625-1.407 6.281-1.657zm-12.78 7.125c1.53 3.22 2.687 5.532 3.468 6.938.781 1.375 1.312 2.312 1.625 2.781-1.5 2.031-2.781 3.313-3.844 3.844-1.062.5-1.906.594-2.531.281-.625-.312-1.063-.812-1.344-1.5-.25-.687-.344-1.969-.281-3.812.062-1.875.375-3.5.937-4.875.594-1.375 1.25-2.594 1.97-3.657z" id="path2061"/>
        <path d="m295.62 296.62 3.332 10.201" class="stroke" id="path15122"/>
        <text x="296.825" y="297.608" class="number">1</text>
        <path d="m321.852 294.226-4.684 10.618" class="stroke" id="path16045"/>
        <text x="323.368" y="300.002" class="number">2</text>
        <path d="M292.186 338.777s-5.673-1.04-7.287-4.788c-1.613-3.747.209-7.65.833-10.2" class="stroke" id="path16966"/>
        <path d="M328.202 317.022s3.413 3.217 3.049 7.406c-.365 4.19-2.865 6.941-4.507 9.353" class="stroke" id="path18798"/>
    </g>
    <text x="353.434" y="362.671" id="cellHE" class="label cell">HE</text>
    <g id="gHE">
        <path d="M364.937 307.716c1.75 0 4 1.516 6.75 4.547 2.781 3.031 9.438 8.422 19.969 16.172l-.047.562c-1.188.907-2.469 2.297-3.844 4.172-10-9.281-16.047-15.015-18.14-17.203-2.063-2.219-3.532-3.328-4.407-3.328-.843 0-1.531.39-2.062 1.172-.531.75-4.313 4.437-11.344 11.062-1.125-1.468-2.39-2.656-3.797-3.562v-.375c7.156-5.375 11.438-8.922 12.844-10.64 1.437-1.72 2.797-2.579 4.078-2.579" id="path2083"/>
        <path d="m346.751 316.537 11.957-10.636" class="stroke" id="path19719"/>
        <text x="345.19" y="310.121" class="number">1</text>
    </g>
    <text x="417.434" y="362.671" id="cellNE" class="label cell">NE</text>
    <g id="gNE">
        <path d="M424.359 300.185c-.235.07-.274.328-.157.75.25.375.313 1.562.22 3.593a202.45 202.45 0 0 0-.188 5.688 66.066 66.066 0 0 1-9.594 1.594l-.094.406a17.72 17.72 0 0 1 1.688 4.031 499.277 499.277 0 0 1 7.968-2.562v3.312a86.91 86.91 0 0 1-2.875 5.594c-2.312 2.531-4.937 5.562-7.875 9.125 1.532.969 2.75 2.125 3.625 3.469l.282.062c2.375-3.687 4.656-6.906 6.843-9.625v5.125c.032 2.563.094 5.938.188 10.156 1.812-.437 3.406-.687 4.812-.78l.157-.438c-.5-4.125-.782-7.72-.844-10.782-.031-3.062-.063-5.75-.094-8.062 2.938-2.969 5.531-5.063 7.781-6.313 2.282-1.25 4.125-1.968 5.563-2.156 1.469-.219 2.75 0 3.844.688 1.125.687 1.937 1.75 2.406 3.156.469 1.406.781 2.906.937 4.531.157 1.594.219 2.969.188 4.094-.031 1.094-.094 1.937-.188 2.531-1.875-1.031-3.75-1.687-5.625-1.969-1.843-.312-3.468-.156-4.843.5-1.344.625-2.282 1.532-2.844 2.72-.531 1.187-.719 2.312-.563 3.374.188 1.063.75 2.094 1.688 3.063.937.968 2.187 1.687 3.781 2.156 1.594.469 3.438.375 5.5-.281 2.094-.657 3.656-1.782 4.719-3.375a45.707 45.707 0 0 1 3.187 3.562 26.875 26.875 0 0 1 3.344-3.625l-.156-.469a94.974 94.974 0 0 0-4.594-3.375c.313-1.125.5-2.53.563-4.25a44.766 44.766 0 0 0-.032-5.406c-.125-1.875-.687-3.844-1.687-5.906-1-2.094-2.469-3.563-4.375-4.438-1.906-.875-3.813-1.156-5.75-.843-1.938.312-4.094 1.125-6.469 2.468a42.041 42.041 0 0 0-6.375 4.47l-.062-.626c.562-.844 1.28-1.875 2.125-3.094l1.593-.843c.657-.375.75-.72.282-1.063a61.461 61.461 0 0 0-3.188-1.781c-.156-.125-.312-.125-.469 0l-.187.312c.062-2.156.156-4.375.281-6.656l.563-.781c.28-.313.218-.563-.157-.719l-4.53-.312a.834.834 0 0 0-.313 0zm17.687 28.343c1.531 0 3.438.813 5.688 2.407-.657 1.28-1.657 2.156-2.97 2.625-1.312.468-2.468.5-3.5.125-1.03-.407-1.78-.938-2.218-1.625-.406-.72-.375-1.5.063-2.313.437-.812 1.406-1.219 2.937-1.219z" id="path2107"/>
        <path d="M410.733 329.022s-3.843 8.03-1.36 9.924c3.509 2.677 7.71-1 10.973-2.965" class="stroke" id="path20640"/>
        <path d="m431.46 295.163 1.042 10.201" class="stroke" id="path20642"/>
        <text x="434.155" y="297.641" class="number">1</text>
        <path d="m411.678 308.284 9.936-1.104" class="stroke" id="path20648"/>
        <text x="409.077" y="304.913" class="number">2</text>
        <path d="M447.559 307.054s4.346.056 7.012 3.178c2.26 2.644 1.894 8.07 2.029 11.632" class="stroke" id="path20654"/>
    </g>
    <text x="483.434" y="362.671" id="cellTE" class="label cell">TE</text>
    <g id="gTE">
        <path d="M513.602 301.261a23.621 23.621 0 0 0 1.453 4.172l-.469.328c-2.093.188-4.25.391-6.468.61-2.282 1.187-4.547 2.703-6.797 4.547-2.219 1.812-4.016 3.86-5.39 6.14-1.376 2.282-2 4.64-1.876 7.078.156 2.407 1.031 4.329 2.625 5.766 1.594 1.438 3.266 2.344 5.016 2.719 1.75.344 4.469.39 8.156.14l.14.141a73.426 73.426 0 0 0-.984 5.156c-1.843.063-3.875-.015-6.093-.234a15.764 15.764 0 0 1-6.094-1.875c-1.875-1.063-3.485-2.516-4.828-4.36-1.313-1.843-2.11-4.14-2.39-6.89-.25-2.75.343-5.39 1.78-7.922 1.47-2.531 2.985-4.5 4.547-5.906 1.563-1.438 2.953-2.64 4.172-3.61-1.125.125-3.594.438-7.406.938-3.813.469-8.703 1.203-14.672 2.203-.313-1.75-.781-3.297-1.406-4.64l.187-.47c2.25 0 4.703-.109 7.36-.327 2.656-.25 6.953-.735 12.89-1.454a528.398 528.398 0 0 0 16.547-2.25" id="path2133"/>
        <path d="m476.116 302.658 12.7-1.25" class="stroke" id="path20664"/>
        <text x="475.307" y="299.708" class="number">1</text>
        <path d="M510.284 298.397s10.526-.589 11.483 2.503c.956 3.09-5.013 7.5-7.655 9.862" class="stroke" id="path21585"/>
    </g>
    <text x="547.434" y="362.671" id="cellSE" class="label cell">SE</text>
    <g id="gSE">
        <path d="m583.096 311.627.375 4.03-.235.235c-3.593.282-7.171.547-10.734.797-.031 4.219-.328 6.984-.89 8.297-.532 1.281-1.485 2.094-2.86 2.437-1.344.344-3.828.204-7.453-.421.312-1.688.484-3.032.516-4.032l.28-.234c1.595.531 2.782.844 3.563.937.813.063 1.36 0 1.641-.187.312-.187.562-.766.75-1.734.187-1 .297-2.61.328-4.829-1.687.126-3.562.25-5.625.375-2.062.126-4.39.282-6.984.47a245.48 245.48 0 0 0-.094 4.405c0 2.063.047 4.047.14 5.954.126 1.906.438 3.296.938 4.171.531.844 1.484 1.36 2.86 1.547a31.91 31.91 0 0 0 4.312.282c1.531-.032 3.516-.094 5.953-.188a61.754 61.754 0 0 0 7.688-.797l.421.281a36.198 36.198 0 0 0-1.078 4.688c-1.312.094-2.484.172-3.515.234-1.032.032-2.735.063-5.11.094-2.343.031-4.843-.031-7.5-.187-2.656-.157-4.453-.532-5.39-1.125-.907-.594-1.75-1.563-2.532-2.907-.75-1.343-1.187-3.125-1.312-5.343a93.532 93.532 0 0 1-.14-6.563c.03-2.156.046-3.562.046-4.219-3.094.22-6.297.454-9.61.703a54.428 54.428 0 0 0-.562-4.312v-.281c3.532 0 6.953-.047 10.266-.14 0-1.438.031-3.282.094-5.532.062-2.25-.078-3.594-.422-4.031.031-.5.25-.75.656-.75l4.734.375c.375.156.407.422.094.796l-.469.797a716.363 716.363 0 0 0-.375 8.157 301.75 301.75 0 0 0 6.61-.329c2.062-.156 4.047-.312 5.953-.468 0-1.594-.016-3.61-.047-6.047-.031-2.469-.234-3.969-.61-4.5-.062-.406.157-.625.657-.656l4.125.234c.406.125.484.344.234.656l-.422.844c.063 3.469.094 6.5.094 9.094 3.5-.313 7.047-.672 10.64-1.078" id="path2147"/>
        <path d="m534.823 310.323 12.699-1.249" class="stroke" id="path22502"/>
        <text x="533.805" y="307.998" class="number">1</text>
        <path d="M576.025 299.127v10.157" class="stroke" id="path22508"/>
        <text x="577.292" y="300.893" class="number">2</text>
        <path d="M560.025 299.127v10.157" class="stroke" id="path23429"/>
        <text x="553.923" y="301.036" class="number">3</text>
    </g>
    <text x="611.434" y="362.671" id="cellKE" class="label cell">KE</text>
    <g id="gKE">
        <path d="M633.98 300.369c-.31.04-.382.25-.218.625.25.531.468 2.156.625 4.844.156 2.656.25 4.343.28 5.062-4.155.313-8.687.281-13.562-.094l-.125.407c.313 1.28.47 2.625.5 4 3.97-.032 8.438-.22 13.407-.532.062.875.093 1.594.093 2.125.032.532.063 1.844.063 3.938 0 2.062-.156 4-.438 5.844-.25 1.812-.78 3.375-1.593 4.687a12.603 12.603 0 0 1-2.907 3.375c-1.125.906-2.843 1.75-5.156 2.5v.5c1.063 1.344 1.906 2.656 2.531 3.906 2.282-1.28 4.125-2.53 5.5-3.718 1.407-1.188 2.594-2.594 3.594-4.25 1-1.688 1.688-3.657 2.031-5.907.344-2.28.47-4.468.407-6.562a1731.4 1731.4 0 0 1-.188-6.75c2.844-.313 5.375-.719 7.563-1.219l-1.313-3.937c-2 .53-4.125.937-6.375 1.25-.094-2.407-.219-5.22-.344-8.438l.344-.875c.219-.375.125-.594-.281-.656l-4.031-.094a1.668 1.668 0 0 0-.407-.031zm-24.406 2.406c-.531.031-.75.25-.656.656.25.438.187 2.157-.188 5.157s-.625 6.437-.75 10.28c-.093 3.845.063 6.938.47 9.313.405 2.375 1.062 4.282 1.968 5.72.906 1.405 1.969 2.03 3.187 1.874 1.22-.187 2.97-1.687 5.22-4.5a48.519 48.519 0 0 1-3.188-3.406h-.157c-.875 1.719-1.5 2.469-1.875 2.25-.375-.219-.718-1.063-1.03-2.5-.313-1.469-.47-4.281-.47-8.438.032-4.156.5-8.843 1.375-14.062l.688-.75c.437-.406.437-.688 0-.844l-4.594-.75z" id="path2163"/>
        <path d="M604.584 304.426c-2.554 4.966-1.104 13.647-.223 18.613" class="stroke" id="path23443"/>
        <text x="598.074" y="306.526" class="number">1</text>
        <path d="M620.777 307.812h11.04" class="stroke" id="path24364"/>
        <text x="620.014" y="305.617" class="number">2</text>
        <path d="m642.247 294.226-.313 12.075" class="stroke" id="path25285"/>
        <text x="644.683" y="300.205" class="number">3</text>
    </g>
    <text x="681.434" y="362.671" id="cellE" class="label cell">E</text>
    <g id="gE">
        <path d="m680.483 297.259-1.313 3.906c4.063 1.187 8.938 2.031 14.625 2.531 0-1.469.125-2.875.407-4.219-5.157-.125-9.72-.875-13.72-2.218zm13.406 10.687c-.11 0-.234.063-.344.156l-.406.47c-8 .843-14.406 1.28-19.187 1.312l-.22.562c.626 1.344 1 2.719 1.157 4.156 4.406-.78 9.781-1.437 16.094-1.968-7.063 7.062-14.625 14.312-22.656 21.75v.468a17.478 17.478 0 0 1 3.562 3.72c.906-1.22 2.438-3.032 4.594-5.407a231.864 231.864 0 0 1 5.687-6.125c2.813-1.813 4.719-2.844 5.72-3.094 1-.25 1.78-.281 2.343-.062.562.218.844 1.218.875 3 .031 1.75.125 3.5.25 5.25s.437 3.03.937 3.812c.532.813 1.719 1.281 3.594 1.438 1.906.187 3.688.28 5.344.25 1.656-.032 3.781-.063 6.375-.063a41.75 41.75 0 0 1 1.125-5l-.281-.469c-3.625.688-6.438 1.032-8.438 1.032-2-.032-3.281-.22-3.844-.532-.53-.343-.812-1.093-.875-2.25-.03-1.187-.125-2.687-.25-4.5-.125-1.843-.437-3.125-.937-3.875s-1.188-1.28-2.094-1.593c-.875-.344-1.594-.438-2.156-.282-.563.157-.969.282-1.188.375 2.438-2.437 5.219-5.187 8.344-8.25l.844-.28c.594-.407.625-.813.094-1.22a18.258 18.258 0 0 0-3.75-2.625c-.11-.093-.204-.156-.313-.156z" id="path2181"/>
        <path d="m679.513 293.239 14.72 3.091" class="stroke" id="path26210"/>
        <text x="674.475" y="295.485" class="number">1</text>
        <path d="M670.5 306.764h11.04" class="stroke" id="path27131"/>
        <text x="667.856" y="305.029" class="number">2</text>
        <path d="M698.769 305.884c.52.105 4.163 1.562 4.267 4.164.105 2.602-2.576 4.632-3.851 6.246" class="stroke" id="path27137"/>
        <path d="M666.485 331.44s-2.208 7.544.368 9.715c2.576 2.171 8.887-.423 12.512-1.62" class="stroke" id="path28054"/>
    </g>
    <text x="92.317" y="442.671" id="cellWO" class="label cell">WO</text>
    <g id="gWO">
        <path d="m126.963 394.402.234-.61c.125-.593.39-.687.797-.281l3.938 3.61c.062.468-.204.765-.797.89-.594-.125-2.188.25-4.781 1.125-2.594.875-5.454 2.063-8.579 3.563.032.53.063 1.406.094 2.625.063 1.187.11 3.125.14 5.812h-4.5a67.39 67.39 0 0 0 .329-6.516c-2.188 1.157-3.781 2.141-4.781 2.954a11.506 11.506 0 0 0-2.391 2.718c-.625 1-.781 1.985-.469 2.953.313.938.813 1.579 1.5 1.922.688.313 1.828.547 3.422.703 1.625.125 3.5.141 5.625.047 2.156-.093 5.656-.406 10.5-.937l.328.281c-.312 1.188-.547 2.688-.703 4.5h-11.672a37.65 37.65 0 0 1-6.797-.516c-2.218-.343-3.812-.937-4.78-1.78-.97-.876-1.641-2.016-2.016-3.423-.375-1.437-.172-2.875.609-4.312.812-1.438 2.016-2.781 3.61-4.031 1.593-1.25 4.218-2.875 7.874-4.875a41.576 41.576 0 0 0-.234-2.016c-.094-.938-1.063-1.484-2.906-1.64-1.844-.188-4.578.843-8.203 3.093-1.313 1.5-2.766 3.11-4.36 4.828a25.006 25.006 0 0 0-3.047-3.234l-.047-.422c2.532-1.75 4.704-3.64 6.516-5.672 1.813-2.031 3.234-3.953 4.266-5.766-2.938.344-6.047.672-9.328.985a19.916 19.916 0 0 0-.75-3.844l.187-.281c4.219-.031 8.172-.235 11.86-.61.374-.812.812-1.859 1.312-3.14.531-1.313.64-2.25.328-2.813-.031-.343.172-.562.61-.656l5.015.797c.375.125.375.328 0 .61l-.844.656a102.054 102.054 0 0 1-1.875 3.984c3.188-.438 6.14-1.031 8.86-1.781l.89 3.797c-3.031.593-6.922 1.187-11.672 1.78a51.512 51.512 0 0 1-4.078 6.188c2.281-1.156 4.469-1.578 6.563-1.265 2.125.312 3.578 1.875 4.36 4.687 2.655-1.344 5.937-2.906 9.843-4.687" id="path2025"/>
        <path d="m92.85 383.641 13.324-.833" class="stroke" id="path28975"/>
        <text x="91.663" y="381.187" class="number">1</text>
        <path d="m119.706 372.607-3.331 9.993" class="stroke" id="path29896"/>
        <text x="121.685" y="377.625" class="number">2</text>
        <path d="M91.637 397.977s-3.008 9.514-.506 11.501c2.503 1.987 8.017-1.883 10.516-3.552" class="stroke" id="path30817"/>
        <path d="m133.003 400.553-11.924 4.343" class="stroke" id="path31734"/>
        <text x="128.898" y="409.128" class="number">3</text>
    </g>
    <text x="161.434" y="442.671" id="cellRO" class="label cell">RO</text>
    <g id="gRO">
        <path d="m182.303 381.043.234-.422c.219-.187.437-.187.656 0 1.031.626 2.219 1.376 3.563 2.25.562.438.515.844-.141 1.22l-.984.374a7888.441 7888.441 0 0 1-11.203 12.563c1.53-.688 3.39-1.219 5.578-1.594 2.218-.375 4.78.047 7.687 1.266 2.938 1.187 4.89 2.859 5.86 5.015.968 2.156 1.265 4.453.89 6.89-.344 2.438-1.312 4.532-2.906 6.282-1.563 1.719-4 2.906-7.313 3.563-3.312.687-7.468.89-12.468.609-.157-1.563-.516-2.969-1.078-4.219v-.187c4.312.468 7.734.593 10.265.375 2.531-.25 4.61-.875 6.235-1.875 1.624-1 2.578-2.547 2.859-4.64.312-2.095.125-3.892-.563-5.392-.687-1.53-1.953-2.703-3.796-3.515-1.844-.844-3.891-1.125-6.141-.844s-4.313.969-6.188 2.063c-1.843 1.062-3.75 2.375-5.718 3.937a491.878 491.878 0 0 0-4.782 5.484c-1.093-1.625-2.218-2.687-3.375-3.187v-.563c7.438-6.906 14.172-14.124 20.204-21.656a544.703 544.703 0 0 0-14.063 2.063c-.156-1.438-.484-2.766-.984-3.985l.234-.562c1.938.062 4.39-.016 7.36-.235 2.968-.218 6.328-.578 10.078-1.078" id="path2029"/>
        <path d="m164.882 379.27 17.695-1.458" class="stroke" id="path32659"/>
        <text x="163.931" y="377.37" class="number">1</text>
        <path d="M159.089 401.1s-3.53 8.652-1.235 10.876c3.231 3.133 9.579-1.57 13.847-4.8" class="stroke" id="path33580"/>
        <path d="M194.027 398.11s3.774 3.643 4.268 7.703c.494 4.06-2.012 8.241-2.879 10.302" class="stroke" id="path33582"/>
    </g>
    <text x="225.434" y="442.671" id="cellYO" class="label cell">YO</text>
    <g id="gYO">
        <path d="M238.405 379.626c-.469.062-.625.312-.5.75.344.437.531 2.218.594 5.375.062 3.156.156 6.03.281 8.593.156 2.532.281 6.125.344 10.782-1.375-.157-3.282-.25-5.688-.25-2.375 0-4.344.406-5.937 1.218-1.563.782-2.657 1.97-3.25 3.563-.594 1.594-.75 2.937-.5 4.031.25 1.063.781 2.094 1.625 3.063.843 1 2.156 1.687 3.937 2.093 1.813.407 3.281.594 4.406.532 1.125-.063 2.344-.282 3.625-.625a7.369 7.369 0 0 0 3.407-1.97c1-.968 1.625-2.03 1.875-3.187.281-1.156.468-2.406.562-3.75 4.625 1.563 8.656 3.72 12.063 6.438 1.25-1.969 2.28-3.375 3.125-4.188v-.562c-4.407-2.125-7.782-3.531-10.157-4.25-2.375-.719-4.03-1.188-4.937-1.406-.063-4.844-.125-8.625-.219-11.344 5.625-.469 10.188-1.063 13.719-1.75l-1.25-3.969c-3.719.969-7.938 1.594-12.625 1.875-.063-2.437-.125-5.5-.188-9.156l.625-.875c.344-.375.282-.625-.156-.75l-4.781-.281zm-3.969 28.625c1.656 0 3.188.156 4.594.468-.063 1.5-.25 2.75-.531 3.72-.282.968-.782 1.687-1.5 2.155-.719.47-1.594.782-2.657.938-1.062.156-2.406.031-4.03-.344-1.595-.375-2.438-1.344-2.532-2.906-.063-1.594.594-2.656 2-3.219 1.437-.562 3-.844 4.656-.812z" id="path2047"/>
        <path d="m246.214 386.11 13.324-1.874" class="stroke" id="path34503"/>
        <text x="246.305" y="384.21" class="number">1</text>
        <path d="m234.355 378.325 1.03 14.132" class="stroke" id="path35424"/>
        <text x="227.528" y="385.133" class="number">2</text>
        <path d="M226.296 419.657s-5.595-1.041-6.35-4.892c-.755-3.852 1.983-7.959 3.331-10.514" class="stroke" id="path36345"/>
        <path d="m252.61 405.411 8.684 3.68" class="stroke" id="path37262"/>
    </g>
    <text x="287.434" y="442.671" id="cellMO" class="label cell">MO</text>
    <g id="gMO">
        <path d="m310.727 386.826.89 3.844c-2.562.375-5.937.562-10.124.562-.282 1.531-.516 2.89-.703 4.078a225.577 225.577 0 0 0-.47 3c.47.031 1.626.078 3.47.14 1.843.032 4.593-.202 8.25-.702l.843 4.03c-3.875.438-6.875.61-9 .517a897.71 897.71 0 0 0-4.078-.235c-.187 1.438-.36 2.985-.515 4.64-.157 1.626-.016 3.048.421 4.266.438 1.22 1.329 2.157 2.672 2.813 1.344.625 3.063.984 5.157 1.078 2.093.094 4-.219 5.718-.937 1.75-.75 2.907-2.344 3.47-4.782.562-2.468.343-5.25-.657-8.343 1.437-.188 2.969-.547 4.594-1.079.968 3.813 1.14 7.282.515 10.407-.625 3.093-2.36 5.406-5.203 6.937-2.844 1.563-5.844 2.203-9 1.922-3.156-.25-5.687-.969-7.594-2.156-1.875-1.156-3.14-2.672-3.797-4.547-.656-1.906-.875-3.719-.656-5.438.219-1.718.453-3.421.703-5.109a70.372 70.372 0 0 1-2.625-.422c-1.062-.187-2.625-.797-4.687-1.828l1.875-3.469c2 1 3.39 1.578 4.172 1.735l1.828.28c.094-.75.234-1.733.422-2.952.187-1.219.39-2.516.61-3.89-2.22-.063-4.642-.141-7.267-.235.063-1.156-.046-2.469-.328-3.938l.282-.28c2.906.343 5.562.577 7.968.702.188-1.031.47-2.469.844-4.312.375-1.875.39-3.032.047-3.47.031-.499.25-.749.656-.75l4.594.75c.406.22.437.485.094.798l-.75.75a363.01 363.01 0 0 0-1.219 6.281 75.183 75.183 0 0 0 8.578-.656" id="path2055"/>
        <path d="m284.63 383.345 11.312.373" class="stroke" id="path38183"/>
        <text x="278.856" y="386.508" class="number">2</text>
        <path d="m283.964 393.708 10.747.147" class="stroke" id="path39104"/>
        <text x="278.783" y="395.487" class="number">3</text>
        <path d="m308.99 375.233-2.061 9.569" class="stroke" id="path40025"/>
        <text x="311.095" y="380.767" class="number">1</text>
    </g>
    <text x="351.434" y="442.671" id="cellHO" class="label cell">HO</text>
    <g id="gHO">
        <path d="M388.525 381.454c-4.562.593-8.469.968-11.719 1.125-3.218.156-6.906.125-11.062-.063l-.25.344c.25 1.406.406 2.719.469 3.969 4.125-.125 8-.25 11.625-.407-.22.094-.282.313-.188.657.281.437.469 1.468.531 3.125.094 1.625.157 2.812.188 3.562-4.031.219-8.375.25-13 .063l-.219.312c.313 1.313.438 2.688.375 4.125 4.625-.156 8.969-.344 13.063-.562.03.437.093 1.406.187 2.875.125 1.437.188 3.28.156 5.562-2.093-.437-3.906-.594-5.437-.5-1.531.094-3 .5-4.406 1.25-1.375.719-2.282 1.781-2.688 3.156-.375 1.375-.406 2.563-.125 3.563.313.969.781 1.781 1.406 2.437.625.657 1.594 1.22 2.907 1.688 1.343.5 2.562.75 3.656.781a14.008 14.008 0 0 0 3.375-.312 7.116 7.116 0 0 0 3.094-1.47 4.94 4.94 0 0 0 1.781-2.75c.281-1.155.469-2.03.562-2.593 2.188 1.063 4.72 2.594 7.594 4.563.75-1.813 1.531-3.282 2.375-4.375v-.375c-3.781-1.72-7.031-3-9.75-3.875a356.876 356.876 0 0 0-.281-6.344c-.063-1.688-.125-2.875-.188-3.563 3.313-.218 6.22-.468 8.688-.78l-.438-4.188c-2.53.437-5.343.78-8.437 1.03-.063-1.655-.125-3.5-.219-5.53l.375-.782c.219-.343.188-.562-.094-.656l-3.937-.156c3.656-.188 7.156-.469 10.5-.844l-.469-4.062zm-35.5.218c-.531.032-.656.25-.406.657.281.312.281 2.156 0 5.5-.25 3.343-.469 7.562-.656 12.656-.157 5.094-.094 8.781.187 11.094.313 2.28.938 4.125 1.875 5.53.938 1.438 2.063 2.063 3.375 1.876 1.313-.156 3.094-1.563 5.344-4.25a39.59 39.59 0 0 1-3.094-3.75l-.25.031c-.906 1.844-1.531 2.688-1.906 2.5-.375-.187-.719-1.031-1.031-2.531-.313-1.5-.407-4.938-.282-10.281.157-5.344.563-10.938 1.22-16.813l.655-.75c.375-.375.313-.656-.156-.812l-4.875-.657zm21.25 27.282c1.02.023 2.422.297 4.25.812a23.673 23.673 0 0 1-.281 2.719c-.125.969-.563 1.625-1.344 1.969a7.59 7.59 0 0 1-2.312.562c-.782.063-1.72-.062-2.844-.375-1.094-.312-1.719-1.031-1.875-2.156-.125-1.125.156-1.938.875-2.438.75-.53 1.625-.875 2.625-1.03.25-.048.566-.071.906-.063z" id="path2081"/>
        <path d="M348.083 383.017c-1.04 4.892-1.04 14.572-.833 19.569" class="stroke" id="path40946"/>
        <text x="341.341" y="390.976" class="number">1</text>
        <path d="m365.152 379.517 19.12-.147" class="stroke" id="path41867"/>
        <text x="359.379" y="382.68" class="number">2</text>
        <path d="m364.904 390.713 10.746.148" class="stroke" id="path41873"/>
        <text x="358.681" y="393.534" class="number">3</text>
        <path d="m393.78 386.035.52 15.302" class="stroke" id="path41879"/>
        <text x="391.574" y="385.415" class="number">4</text>
        <path d="M369.7 419.246c-2.883-.984-4.953-2.803-6.236-5.994-1.361-3.383 1.737-6.721 3.297-9.158" class="stroke" id="path42800"/>
        <path d="m387.427 405.972 8.832 3.091" class="stroke" id="path43717"/>
    </g>
    <text x="416.845" y="442.671" id="cellNO" class="label cell">NO</text>
    <g id="gNO">
        <path d="M435.714 382.75c-1.53 0-3.28.218-5.218.656-1.907.406-3.782 1.187-5.625 2.375-1.844 1.187-3.5 2.656-5 4.375-1.469 1.719-2.72 3.937-3.719 6.687-1 2.75-1.344 5.125-1.063 7.125.282 2 .875 3.813 1.782 5.438.937 1.594 1.968 2.75 3.093 3.469 1.125.687 2.22.968 3.313.812 1.094-.187 2.406-.844 3.937-1.937 1.563-1.094 3.22-3.25 4.97-6.5 1.75-3.282 3.53-8.907 5.312-16.875l.656-.657c.312-.25.281-.468-.094-.656l-3.281-.719c1.687-.062 3.5.157 5.469.625 1.968.47 3.718 1.282 5.25 2.469 1.562 1.188 2.656 2.75 3.281 4.688.625 1.906.844 3.906.656 6-.156 2.062-.687 3.968-1.594 5.687-.906 1.688-2.343 3.063-4.312 4.156-1.938 1.063-4.75 1.938-8.469 2.594v.375c.688 1.25 1.188 2.625 1.5 4.156 4.625-1.25 8.094-2.625 10.406-4.125 2.344-1.5 4.094-3.312 5.25-5.468 1.157-2.157 1.782-4.594 1.907-7.313.156-2.75-.188-5.25-1.032-7.5-.812-2.25-2.28-4.219-4.406-5.875-2.094-1.656-4.312-2.75-6.656-3.281-2.344-.531-4.438-.781-6.313-.781zm-2.53 3.75v.125c.218.593-.188 2.937-1.188 7.03-1 4.063-2.188 7.407-3.594 10.032-1.375 2.594-2.625 4.188-3.719 4.781-1.062.594-1.875.813-2.437.657-.563-.157-1.22-.844-1.969-2.063-.719-1.219-1.094-2.562-1.125-4.062 0-1.532.406-3.344 1.219-5.438.812-2.125 1.843-3.875 3.062-5.25 1.25-1.406 2.719-2.656 4.406-3.75 1.688-1.094 3.47-1.781 5.344-2.062z" id="path2103"/>
        <path d="m441.028 389.664-3.955 12.178" class="stroke" id="path44634"/>
        <text x="441.26" y="399.289" class="number">1</text>
        <path d="M428.225 414.542s-6.246 3.695-9.785 2.081c-3.539-1.613-4.972-7.837-5.844-10.449" class="stroke" id="path45557"/>
        <path d="M434.853 380.386s6.955-1.804 12.512 1.325c5.558 3.128 7.876 8.243 9.716 11.187" class="stroke" id="path46474"/>
    </g>
    <text x="482.325" y="442.671" id="cellTO" class="label cell">TO</text>
    <g id="gTO">
        <path d="m507.295 391.322.328-.656c.25-.532.547-.594.89-.188l3.142 3.703c.093.5-.11.75-.61.75-.594 0-2.14.375-4.64 1.125-2.47.75-5.407 1.89-8.813 3.422-3.375 1.5-5.703 2.797-6.984 3.89-1.25 1.063-2.204 2.22-2.86 3.47-.625 1.218-.781 2.468-.468 3.75.343 1.25.875 2.109 1.593 2.578.75.437 1.89.797 3.422 1.078 1.531.25 3.719.344 6.563.281 2.875-.062 6.796-.36 11.765-.89l.14.28c-.25 1.22-.452 2.829-.608 4.829h-12.141c-3.063 0-5.766-.235-8.11-.703-2.343-.47-4.015-1.297-5.015-2.485-1-1.187-1.656-2.61-1.969-4.265-.281-1.688-.078-3.328.61-4.922a13.921 13.921 0 0 1 3.046-4.36c1.313-1.312 2.97-2.515 4.97-3.609-1.063-3.781-1.72-7.297-1.97-10.547-.25-3.25-.609-5.015-1.078-5.297 0-.5.266-.75.797-.75l4.453-.14c.406.156.485.406.235.75l-.375.937c.187 5.938.796 10.297 1.828 13.078 3.156-1.5 7.11-3.203 11.86-5.11" id="path2131"/>
        <path d="m496.726 376.146 3.54 13.949" class="stroke" id="path47399"/>
        <text x="499.996" y="381.918" class="number">1</text>
        <path d="m511.695 398.64-12.66 5.005" class="stroke" id="path48320"/>
        <text x="508.387" y="407.091" class="number">2</text>
    </g>
    <text x="546.325" y="442.671" id="cellSO" class="label cell">SO</text>
    <g id="gSO">
        <path d="M579.115 395.266a273.184 273.184 0 0 1 1.594 4.03l-.282.235a386.56 386.56 0 0 0-8.718.469c-.907.344-2.063.984-3.47 1.922-1.405.937-2.937 2.187-4.593 3.75-1.625 1.562-2.594 3.328-2.906 5.297-.281 1.968.062 3.453 1.031 4.453 1 .969 2.266 1.547 3.797 1.734 1.563.188 4.14.016 7.734-.515a34.736 34.736 0 0 0 1.172 4.453l-.234.328c-3.188.375-5.797.469-7.828.281-2-.156-3.844-.687-5.531-1.594-1.657-.906-2.891-2.11-3.704-3.61-.812-1.53-1.109-3.312-.89-5.343.219-2.031 1.14-3.969 2.765-5.812a28.032 28.032 0 0 1 5.485-4.735c-1.094.094-3.469.344-7.125.75-3.656.375-8.39.938-14.203 1.688-.25-1.719-.594-3.11-1.032-4.172l.188-.328c3.437-.156 6.344-.328 8.719-.516 6.75-5.125 11.547-8.937 14.39-11.437-3.625.312-8.015.75-13.172 1.312-.218-1.594-.625-2.875-1.218-3.844l.28-.421c3.97.093 7.267.062 9.892-.094 2.656-.156 5.156-.344 7.5-.563l.328-.375c.125-.187.28-.203.468-.047a82.062 82.062 0 0 1 3.704 2.72c.437.562.312.937-.375 1.124l-1.22.235c-4.75 3.656-9.515 7.265-14.296 10.828 1.25-.094 3.687-.313 7.312-.657 3.625-.343 8.438-.859 14.438-1.546" id="path2145"/>
        <path d="m549.675 379.797 17.665.294" class="stroke" id="path49245"/>
        <text x="552.108" y="378.385" class="number">1</text>
        <path d="M543.36 394.467s-6.194 4.788-5.621 8.327c.572 3.54 7.846 4.593 11.444 5.535" class="stroke" id="path50166"/>
        <path d="M579.411 391.28s5.704 2.612 5.888 6.035c.185 3.422-4.085 6.403-6.624 8.538" class="stroke" id="path51083"/>
    </g>
    <text x="608.325" y="442.671" id="cellKO" class="label cell">KO</text>
    <g id="gKO">
        <path d="M617.691 382.782c-.062.876-.375 2.282-.906 4.25 3.656 1.094 6.875 1.75 9.625 1.97 2.781.187 7 .187 12.656 0v-4.22c-5.312.25-9.25.313-11.78.188-2.501-.125-5.595-.844-9.313-2.188h-.282zm-4.75 20c-.937 2.626-1.25 4.75-.968 6.344.28 1.594.843 2.844 1.687 3.75.844.906 2.063 1.594 3.688 2.094 1.625.5 3.187.875 4.656 1.125 1.5.219 3.906.344 7.25.344s8.062-.063 14.156-.157l-.375-4.875c-6.031.532-10.531.782-13.5.75-2.937-.03-5.031-.124-6.281-.28a30.52 30.52 0 0 1-3.656-.782c-1.22-.344-2.094-.75-2.625-1.219-.532-.5-.782-1.218-.782-2.125.032-.937.469-2.125 1.344-3.562l-4.594-1.407z" id="path2159"/>
        <path d="M618.036 379.33c1.178.294 18.254.589 18.254.589" class="stroke" id="path52000"/>
        <path d="m611.56 418.487 25.613 2.945" class="rule" id="path52917"/>
        <path d="m611.56 418.487 25.613 2.945" class="stroke" id="path52919"/>
        <text x="618.518" y="376.928" class="number">1</text>
        <text x="605.819" y="421.063" class="number">2</text>
    </g>
    <text x="680.325" y="442.671" id="cellO" class="label cell">O</text>
    <g id="gO">
        <path d="M681.782 378.155c-.276.065-.399.266-.375.594.343.437.437 2.937.312 7.5-2.875.187-5.969.25-9.312.156.375 1.563.53 2.969.5 4.219 3.187-.219 6.125-.469 8.78-.719a370.66 370.66 0 0 0 0 8.344c-2.78 1.031-5.093 2.344-6.937 3.906-1.812 1.563-2.906 3.438-3.25 5.656-.343 2.188-.312 3.907.063 5.125.375 1.22 1.156 2.22 2.375 3.032a8.973 8.973 0 0 0 4.125 1.468c1.562.188 3.094-.093 4.594-.843 1.53-.72 2.53-1.5 3-2.344.5-.875.656-2.219.468-4-.187-1.781-.312-4.875-.406-9.313a39.508 39.508 0 0 1 3.313-.718c1.437-.282 3.28-.438 5.5-.47 2.218-.03 3.968.157 5.28.563 1.345.407 2.5 1.032 3.438 1.875.938.844 1.5 1.844 1.72 2.97.249 1.124.218 2.155-.126 3.124-.344.969-.937 1.813-1.781 2.531a6.172 6.172 0 0 1-2.781 1.313c-1 .156-2.032 0-3.125-.5-1.063-.5-2.125-1.719-3.188-3.656l-.375-.063c-.781.906-1.906 1.75-3.344 2.531 1.282 1.844 2.407 3.188 3.375 4 .97.782 2.313 1.282 4 1.532 1.688.25 3.282.125 4.813-.375a11.017 11.017 0 0 0 4.125-2.563c1.219-1.187 2.094-2.562 2.594-4.094.53-1.53.53-3.125.03-4.78-.5-1.688-1.374-3.095-2.624-4.22-1.25-1.156-2.813-2.062-4.688-2.718-1.843-.688-4.125-1.032-6.875-1.032-2.75-.03-4.843.094-6.28.375-1.438.25-2.47.438-3.063.563 0-2.313.03-4.844.062-7.594 4.406-.437 8.063-.937 11-1.5l-1.156-3.844c-3.031.72-6.313 1.282-9.813 1.688.032-1.844.094-3.75.157-5.75l.593-.813c.344-.343.313-.593-.093-.75l-4.313-.406c-.125-.008-.22-.021-.312 0zm19.625 4.625-2.188 3.563c3.594 1.656 6.438 3.906 8.531 6.718 1.282-1.468 2.313-2.562 3.125-3.25v-.375c-2.219-2.03-5.375-4.25-9.468-6.656zm-19.625 19.563c.062 3.937.125 6.656.187 8.187.063 1.531-.344 2.5-1.219 2.906-.843.407-1.718.563-2.625.438-.906-.156-1.656-.563-2.218-1.188-.532-.625-.688-1.843-.5-3.687.218-1.875.906-3.281 2.093-4.219 1.188-.937 2.625-1.75 4.282-2.437z" id="path2177"/>
        <path d="m667.143 383.695 11.866-.313" class="stroke" id="path53852"/>
        <text x="666.479" y="381.868" class="number">1</text>
        <path d="m689.697 370.908.043 11.582" class="stroke" id="path54773"/>
        <text x="692.189" y="378.329" class="number">2</text>
        <path d="M681.868 419.596s-8.839.358-11.539-2.429c-2.593-2.678-2.027-8.721-2.016-11.825" class="stroke" id="path55694"/>
        <path d="m703.349 379.894 9.472 6.558" class="stroke" id="path56611"/>
        <text x="705.929" y="379.578" class="number">3</text>
    </g>
    <text x="38.317" y="34.671" id="colN" class="label col">n</text>
    <text x="102.317" y="34.671" id="colw" class="label col">w</text>
    <text x="170.317" y="34.671" id="colr" class="label col">r</text>
    <text x="234.317" y="34.671" id="coly" class="label col">y</text>
    <text x="296.317" y="34.671" id="colm" class="label col">m</text>
    <text x="362.317" y="34.671" id="colh" class="label col">h</text>
    <text x="426.317" y="34.671" id="coln" class="label col">n</text>
    <text x="492.317" y="34.671" id="colt" class="label col">t</text>
    <text x="556.317" y="34.671" id="cols" class="label col">s</text>
    <text x="618.317" y="34.671" id="colk" class="label col">k</text>
    <text x="736.317" y="90.671" id="rowa" class="label row">a</text>
    <text x="738.317" y="170.671" id="rowi" class="label row">i</text>
    <text x="736.317" y="252.671" id="rowu" class="label row">u</text>
    <text x="736.317" y="332.671" id="rowe" class="label row">e</text>
    <text x="736.317" y="410.671" id="rowo" class="label row">o</text>
</svg>
